<svg xmlns="http://www.w3.org/2000/svg" xmlns:xlink="http://www.w3.org/1999/xlink" width="1729.304" height="1051.586" viewBox="0 0 1729.304 1051.586">
  <defs>
    <filter id="Path_11750" x="413.503" y="406.578" width="145.24" height="18.208" filterUnits="userSpaceOnUse">
      <feOffset dx="1" dy="1" input="SourceAlpha"/>
      <feGaussianBlur result="blur"/>
      <feFlood flood-opacity="0.161"/>
      <feComposite operator="in" in2="blur"/>
      <feComposite in="SourceGraphic"/>
    </filter>
    <filter id="Path_11751" x="432.068" y="268.343" width="133.264" height="16.774" filterUnits="userSpaceOnUse">
      <feOffset dx="1" dy="1" input="SourceAlpha"/>
      <feGaussianBlur result="blur-2"/>
      <feFlood flood-opacity="0.161"/>
      <feComposite operator="in" in2="blur-2"/>
      <feComposite in="SourceGraphic"/>
    </filter>
    <filter id="Path_11756" x="656.671" y="832.161" width="126.94" height="15.34" filterUnits="userSpaceOnUse">
      <feOffset dx="1" dy="1" input="SourceAlpha"/>
      <feGaussianBlur result="blur-3"/>
      <feFlood flood-opacity="0.161"/>
      <feComposite operator="in" in2="blur-3"/>
      <feComposite in="SourceGraphic"/>
    </filter>
    <filter id="Path_11757" x="1104.244" y="895.682" width="118.66" height="39.32" filterUnits="userSpaceOnUse">
      <feOffset dx="1" dy="1" input="SourceAlpha"/>
      <feGaussianBlur result="blur-4"/>
      <feFlood flood-opacity="0.161"/>
      <feComposite operator="in" in2="blur-4"/>
      <feComposite in="SourceGraphic"/>
    </filter>
    <filter id="Path_11758" x="575.084" y="672.949" width="60.724" height="13.888" filterUnits="userSpaceOnUse">
      <feOffset dx="1" dy="1" input="SourceAlpha"/>
      <feGaussianBlur result="blur-5"/>
      <feFlood flood-opacity="0.161"/>
      <feComposite operator="in" in2="blur-5"/>
      <feComposite in="SourceGraphic"/>
    </filter>
    <filter id="Path_11759" x="509.431" y="734.565" width="62.866" height="13.888" filterUnits="userSpaceOnUse">
      <feOffset dx="1" dy="1" input="SourceAlpha"/>
      <feGaussianBlur result="blur-6"/>
      <feFlood flood-opacity="0.161"/>
      <feComposite operator="in" in2="blur-6"/>
      <feComposite in="SourceGraphic"/>
    </filter>
    <filter id="Path_11760" x="601.184" y="748.257" width="48.88" height="9.592" filterUnits="userSpaceOnUse">
      <feOffset dx="1" dy="1" input="SourceAlpha"/>
      <feGaussianBlur result="blur-7"/>
      <feFlood flood-opacity="0.161"/>
      <feComposite operator="in" in2="blur-7"/>
      <feComposite in="SourceGraphic"/>
    </filter>
    <filter id="Path_11761" x="370.465" y="679.056" width="92.998" height="31.888" filterUnits="userSpaceOnUse">
      <feOffset dx="1" dy="1" input="SourceAlpha"/>
      <feGaussianBlur result="blur-8"/>
      <feFlood flood-opacity="0.161"/>
      <feComposite operator="in" in2="blur-8"/>
      <feComposite in="SourceGraphic"/>
    </filter>
    <filter id="Path_11762" x="809.691" y="437.584" width="93.688" height="33.472" filterUnits="userSpaceOnUse">
      <feOffset dx="1" dy="1" input="SourceAlpha"/>
      <feGaussianBlur result="blur-9"/>
      <feFlood flood-opacity="0.161"/>
      <feComposite operator="in" in2="blur-9"/>
      <feComposite in="SourceGraphic"/>
    </filter>
    <filter id="Path_11763" x="759.915" y="682.043" width="60.96" height="15.34" filterUnits="userSpaceOnUse">
      <feOffset dx="1" dy="1" input="SourceAlpha"/>
      <feGaussianBlur result="blur-10"/>
      <feFlood flood-opacity="0.161"/>
      <feComposite operator="in" in2="blur-10"/>
      <feComposite in="SourceGraphic"/>
    </filter>
    <filter id="Path_11753" x="744.479" y="283.203" width="34.978" height="26.024" filterUnits="userSpaceOnUse">
      <feOffset dx="1" dy="1" input="SourceAlpha"/>
      <feGaussianBlur result="blur-11"/>
      <feFlood flood-opacity="0.161"/>
      <feComposite operator="in" in2="blur-11"/>
      <feComposite in="SourceGraphic"/>
    </filter>
    <filter id="Path_11754" x="627.273" y="206.288" width="69.488" height="11.024" filterUnits="userSpaceOnUse">
      <feOffset dx="1" dy="1" input="SourceAlpha"/>
      <feGaussianBlur result="blur-12"/>
      <feFlood flood-opacity="0.161"/>
      <feComposite operator="in" in2="blur-12"/>
      <feComposite in="SourceGraphic"/>
    </filter>
    <filter id="Path_11766" x="1424.665" y="760.79" width="66.716" height="11.024" filterUnits="userSpaceOnUse">
      <feOffset dx="1" dy="1" input="SourceAlpha"/>
      <feGaussianBlur result="blur-13"/>
      <feFlood flood-opacity="0.161"/>
      <feComposite operator="in" in2="blur-13"/>
      <feComposite in="SourceGraphic"/>
    </filter>
    <filter id="Path_11767" x="1324.277" y="753.29" width="67.556" height="41.024" filterUnits="userSpaceOnUse">
      <feOffset dx="1" dy="1" input="SourceAlpha"/>
      <feGaussianBlur result="blur-14"/>
      <feFlood flood-opacity="0.161"/>
      <feComposite operator="in" in2="blur-14"/>
      <feComposite in="SourceGraphic"/>
    </filter>
    <filter id="Path_11768" x="999.632" y="842.754" width="57.098" height="25.8" filterUnits="userSpaceOnUse">
      <feOffset dx="1" dy="1" input="SourceAlpha"/>
      <feGaussianBlur result="blur-15"/>
      <feFlood flood-opacity="0.161"/>
      <feComposite operator="in" in2="blur-15"/>
      <feComposite in="SourceGraphic"/>
    </filter>
    <filter id="Path_11769" x="1243.051" y="620.538" width="71.236" height="9.592" filterUnits="userSpaceOnUse">
      <feOffset dx="1" dy="1" input="SourceAlpha"/>
      <feGaussianBlur result="blur-16"/>
      <feFlood flood-opacity="0.161"/>
      <feComposite operator="in" in2="blur-16"/>
      <feComposite in="SourceGraphic"/>
    </filter>
    <filter id="Path_11770" x="1263.924" y="467.3" width="89.104" height="9.604" filterUnits="userSpaceOnUse">
      <feOffset dx="1" dy="1" input="SourceAlpha"/>
      <feGaussianBlur result="blur-17"/>
      <feFlood flood-opacity="0.161"/>
      <feComposite operator="in" in2="blur-17"/>
      <feComposite in="SourceGraphic"/>
    </filter>
    <filter id="Path_11771" x="760.595" y="701.425" width="89.688" height="12.456" filterUnits="userSpaceOnUse">
      <feOffset dx="1" dy="1" input="SourceAlpha"/>
      <feGaussianBlur result="blur-18"/>
      <feFlood flood-opacity="0.161"/>
      <feComposite operator="in" in2="blur-18"/>
      <feComposite in="SourceGraphic"/>
    </filter>
    <filter id="Path_11772" x="928.811" y="647.75" width="123.12" height="15.34" filterUnits="userSpaceOnUse">
      <feOffset dx="1" dy="1" input="SourceAlpha"/>
      <feGaussianBlur result="blur-19"/>
      <feFlood flood-opacity="0.161"/>
      <feComposite operator="in" in2="blur-19"/>
      <feComposite in="SourceGraphic"/>
    </filter>
    <filter id="Path_11773" x="224.066" y="894.822" width="30.286" height="13.888" filterUnits="userSpaceOnUse">
      <feOffset dx="1" dy="1" input="SourceAlpha"/>
      <feGaussianBlur result="blur-20"/>
      <feFlood flood-opacity="0.161"/>
      <feComposite operator="in" in2="blur-20"/>
      <feComposite in="SourceGraphic"/>
    </filter>
    <filter id="Path_11774" x="273.196" y="804.32" width="42.608" height="11.038" filterUnits="userSpaceOnUse">
      <feOffset dx="1" dy="1" input="SourceAlpha"/>
      <feGaussianBlur result="blur-21"/>
      <feFlood flood-opacity="0.161"/>
      <feComposite operator="in" in2="blur-21"/>
      <feComposite in="SourceGraphic"/>
    </filter>
    <filter id="Path_11775" x="431.541" y="981.934" width="72.554" height="11.024" filterUnits="userSpaceOnUse">
      <feOffset dx="1" dy="1" input="SourceAlpha"/>
      <feGaussianBlur result="blur-22"/>
      <feFlood flood-opacity="0.161"/>
      <feComposite operator="in" in2="blur-22"/>
      <feComposite in="SourceGraphic"/>
    </filter>
    <filter id="Path_11776" x="499.246" y="874.712" width="50.404" height="21.592" filterUnits="userSpaceOnUse">
      <feOffset dx="1" dy="1" input="SourceAlpha"/>
      <feGaussianBlur result="blur-23"/>
      <feFlood flood-opacity="0.161"/>
      <feComposite operator="in" in2="blur-23"/>
      <feComposite in="SourceGraphic"/>
    </filter>
    <filter id="Path_11777" x="365.16" y="813.959" width="60.597" height="62.283" filterUnits="userSpaceOnUse">
      <feOffset dx="1" dy="1" input="SourceAlpha"/>
      <feGaussianBlur result="blur-24"/>
      <feFlood flood-opacity="0.161"/>
      <feComposite operator="in" in2="blur-24"/>
      <feComposite in="SourceGraphic"/>
    </filter>
    <filter id="Path_11778" x="499.697" y="914.346" width="40.408" height="21.496" filterUnits="userSpaceOnUse">
      <feOffset dx="1" dy="1" input="SourceAlpha"/>
      <feGaussianBlur result="blur-25"/>
      <feFlood flood-opacity="0.161"/>
      <feComposite operator="in" in2="blur-25"/>
      <feComposite in="SourceGraphic"/>
    </filter>
    <filter id="Path_11780" x="464.511" y="514.724" width="76.888" height="30.456" filterUnits="userSpaceOnUse">
      <feOffset dx="1" dy="1" input="SourceAlpha"/>
      <feGaussianBlur result="blur-26"/>
      <feFlood flood-opacity="0.161"/>
      <feComposite operator="in" in2="blur-26"/>
      <feComposite in="SourceGraphic"/>
    </filter>
    <filter id="Path_11755" x="441.332" y="126.645" width="82.48" height="22.48" filterUnits="userSpaceOnUse">
      <feOffset dx="1" dy="1" input="SourceAlpha"/>
      <feGaussianBlur result="blur-27"/>
      <feFlood flood-opacity="0.161"/>
      <feComposite operator="in" in2="blur-27"/>
      <feComposite in="SourceGraphic"/>
    </filter>
  </defs>
  <g id="Group_253" data-name="Group 253" transform="translate(-100.545 -139.948)">
    <path id="Path_9464" data-name="Path 9464" d="M5254.961,4721.035v274.1l-36.886,17.51-36.3,36.115-6.541,16.457-9.176,65.985a86.073,86.073,0,0,1-16.088,27.055l-10.293,33.614-2.12,16.187-13.113,48.258-12.606,15.634-5.4,12.559-17.65,18.216-2.712,13.578-20.146,27.666,3.377,22.894h0l-10.561,21.531-7.128,22.673-11.6,13.3-15.63,12.583-21.73,4.725-15.415,6.819-23.821,22.373-7.811,17.388-40.314,27-2.061,5.831,19.646,2.994,14.412,1.457,46.607-8.519,30.115,8.519s1.183,3.3,16.26,5.3,44.046,2.705,44.046,2.705l57.95-35.646s37.025,14.7,68.494,31.076a629.72,629.72,0,0,1,56.634,33.486l89.681,16.083,18.987,2.14s20.711,4.438,34.271,3.135,19.971-8.347,19.971-8.347l10.234-15.279,22.958-8.559s9.1-1.43,14.553-4.336a62.649,62.649,0,0,0,9.043-5.814h20.784l29.268-8.934,22.054-.833a79.426,79.426,0,0,1,9.308-8.759c3.978-2.877,6.562-2.249,6.562-2.249l24.3,5.567,14.322,6.6s16.2-1.808,25.741,2.652,12.418,15.189,12.418,15.189h19.016l19.676,4.883a26.282,26.282,0,0,1,6.217,5.055,23.9,23.9,0,0,1,3.81,6.787l-.453,12.465s.325,4.2,2.164,6.417,5.193,2.458,5.193,2.458h49.888l23.312,11.561,31.363-16.09s46.735,11.617,107.34,28.7c84.048,23.688,233.208,68.871,233.208,68.871l161.138-129.968,51.1-30.555-7.887-8.913,13.717-45.261-3.269-44.231,51.476-47.3h24.313l13.726,5.641,13.872,10.668,10.681,9.946,10.785,4.594h8.813l14.881-26.265,27.8-43.689,24.381,6.861,12.856,7.718,9.631,2.06,20.513-13.067,12.617-11.578,13.214-15.654L6229.319,5006.8l-151.575,46.434-61.438-14.068-7.514-15.089-4.292-19.191v-38.849l-466.6-173.154V4719.1l-28.9-9.791-18.367-9.408-30.362-42.866-53.765-22.261-11.319,9.746-8.379,15.447-11.391,10.9h-12.8l-5.032,7.119-12.078,5.546-19.743-1.047-40.557,8.115Z" transform="translate(-4810 -4492.513)" fill="none" stroke="#fff" stroke-width="4"/>
    <path id="Path_9571" data-name="Path 9571" d="M2354.307,1499.912v-68.089l-31.607-6.007-14.773-17.39-15.369-24.5-14.827-21.424-16.943-5.945-22.006-4.695-13.55,6.9-10.266,14.955-28.588,20.837L2172.2,1398l-22.749-1.457-36.146,7.346-22.675,24.15V1787.8l111.874-14.324,76.576,2.01,112.053,23.916,840.581,267.019,53.329,5.171,32.571,24.227,6.2-10.236,33.781-61.144,51.055,15.974,15.01-7.785,18.552-22.745L3048.229,1717.41l-146.885,44.526-67.727-15.671-7.384-16.359-5.626-21.127v-35.353Z" transform="translate(-1634 -1193)" fill="none" stroke="#fff" stroke-width="3" opacity="0.4"/>
    <path id="Path_9475" data-name="Path 9475" d="M5388.942,5214.69v241.328l10.511,30.572,61.519,69.772H5717.09l437.125,115.188,150.9-120.62-26.065-58.171-32.869-40.169-24.068-21.931Z" transform="translate(-4815.942 -4496.708)" fill="none" stroke="#fff" stroke-width="3" opacity="0.4"/>
    <path id="Path_9466" data-name="Path 9466" d="M5293.831,4884.6l-8.191,7.468v48.025l10.563,11.818,52.517-4.363,35.121-4.915,100.041-24.715s8.732-2.21,13.958-9.112,6.946-18.494,6.946-18.494v-20.367l-9.589-7.78Z" transform="translate(-4812.785 -4494.016)" fill="#3f52a7" opacity="0.6"/>
    <path id="Path_9467" data-name="Path 9467" d="M5281.959,4952.164v193.2l238.4-12.105-18.924-204.8Z" transform="translate(-4815 -4491.393)" fill="#0089ff" opacity="0.4"/>
    <g transform="matrix(1, 0, 0, 1, 100.55, 139.95)" filter="url(#Path_11750)">
      <path id="Path_11750-2" data-name="Path 11750" d="M3.384-12.936c0-1.2.528-1.656,1.368-1.656s1.368.456,1.368,1.656v9.072c0,1.2-.528,1.656-1.368,1.656S3.384-2.664,3.384-3.864Zm-2.64,8.9C.744-1.344,2.16.192,4.752.192S8.76-1.344,8.76-4.032v-8.736c0-2.688-1.416-4.224-4.008-4.224S.744-15.456.744-12.768ZM14.448-16.8H10.464V0h4.152c2.64,0,4.008-1.392,4.008-3.984V-5.352c0-1.776-.552-3.048-1.968-3.6,1.176-.552,1.7-1.656,1.7-3.384v-.6C18.36-15.528,17.184-16.8,14.448-16.8ZM14.28-7.56c1.2,0,1.7.48,1.7,2.04v1.464c0,1.248-.48,1.656-1.368,1.656H13.1V-7.56Zm.1-6.84c.936,0,1.344.528,1.344,1.728v.936c0,1.344-.6,1.776-1.584,1.776H13.1V-14.4ZM23.928,0H28.1c2.64,0,3.936-1.464,3.936-4.152v-8.5c0-2.688-1.3-4.152-3.936-4.152H23.928Zm4.128-14.4c.84,0,1.344.432,1.344,1.632v8.736c0,1.2-.5,1.632-1.344,1.632H26.568v-12ZM33.6-16.8V-4.008C33.6-1.32,34.944.216,37.536.216s3.936-1.536,3.936-4.224V-16.8h-2.5V-3.84c0,1.2-.528,1.632-1.368,1.632S36.24-2.64,36.24-3.84V-16.8Zm13.32,0H43.248V0h2.3V-11.88L47.52,0h2.5L51.84-12.048V0h2.5V-16.8H50.664l-1.8,11.928Zm13.224,0H56.256V0H58.9V-6.312h1.248c2.64,0,3.936-1.464,3.936-4.152v-2.184C64.08-15.336,62.784-16.8,60.144-16.8Zm0,2.4c.84,0,1.3.384,1.3,1.584v2.52c0,1.2-.456,1.584-1.3,1.584H58.9V-14.4Zm12.744-2.4c-2.64,0-3.7.984-3.7,3.672v9.456C69.192-.984,70.248,0,72.888,0H73.7V-2.16h-.648c-.84,0-1.224-.312-1.224-1.512v-9.456c0-1.2.384-1.512,1.224-1.512H73.7V-16.8ZM81.936,0h3.5l1.872-16.8h-2.3L83.64-3.456,82.32-16.8H79.776L78.5-3.552,77.088-16.8H74.52L76.392,0h3.624l.96-8.952Zm9.336-14.4h4.56v-2.4h-7.2V0h7.2V-2.4h-4.56V-7.32H94.9v-2.4H91.272Zm5.856,1.632c0,4.8,5.16,5.448,5.16,8.9,0,1.2-.528,1.632-1.368,1.632s-1.368-.432-1.368-1.632v-1.2h-2.5v1.032c0,2.688,1.344,4.224,3.936,4.224s3.936-1.536,3.936-4.224c0-4.8-5.16-5.448-5.16-8.9,0-1.2.48-1.656,1.32-1.656s1.32.456,1.32,1.656v.7h2.5v-.528c0-2.688-1.32-4.224-3.888-4.224S97.128-15.456,97.128-12.768Zm8.544-1.632h2.76V0h2.64V-14.4h2.76v-2.4h-8.16Zm16.92-2.4H118.7V0h2.64V-6.312h1.248c2.64,0,3.936-1.464,3.936-4.152v-2.184C126.528-15.336,125.232-16.8,122.592-16.8Zm0,2.4c.84,0,1.3.384,1.3,1.584v2.52c0,1.2-.456,1.584-1.3,1.584h-1.248V-14.4ZM127.752,0h2.64V-16.8h-2.64Zm3.792-14.4h2.76V0h2.64V-14.4h2.76v-2.4h-8.16Zm8.928-2.4v2.16h.648c.84,0,1.224.312,1.224,1.512v9.456c0,1.2-.384,1.512-1.224,1.512h-.648V0h.816c2.64,0,3.7-.984,3.7-3.672v-9.456c0-2.688-1.056-3.672-3.7-3.672Z" transform="translate(412.76 423.57)" fill="#fff"/>
    </g>
    <g transform="matrix(1, 0, 0, 1, 100.55, 139.95)" filter="url(#Path_11751)">
      <path id="Path_11751-2" data-name="Path 11751" d="M.176-13.2h2.53V0h2.42V-13.2h2.53v-2.2H.176Zm10.758,1.342c0-1.1.484-1.518,1.254-1.518s1.254.418,1.254,1.518v8.316c0,1.1-.484,1.518-1.254,1.518s-1.254-.418-1.254-1.518ZM8.514-3.7c0,2.464,1.3,3.872,3.674,3.872S15.862-1.232,15.862-3.7V-11.7c0-2.464-1.3-3.872-3.674-3.872S8.514-14.168,8.514-11.7ZM20.988-15.4H17.424V0h2.42V-5.786h1.144c2.42,0,3.608-1.342,3.608-3.806v-2C24.6-14.058,23.408-15.4,20.988-15.4Zm0,2.2c.77,0,1.188.352,1.188,1.452v2.31c0,1.1-.418,1.452-1.188,1.452H19.844V-13.2Zm7.832,1.5c0,4.4,4.73,4.994,4.73,8.162,0,1.1-.484,1.5-1.254,1.5s-1.254-.4-1.254-1.5v-1.1H28.754V-3.7c0,2.464,1.232,3.872,3.608,3.872S35.97-1.232,35.97-3.7c0-4.4-4.73-4.994-4.73-8.162,0-1.1.44-1.518,1.21-1.518s1.21.418,1.21,1.518v.638h2.288V-11.7c0-2.464-1.21-3.872-3.564-3.872S28.82-14.168,28.82-11.7Zm10.758-.154c0-1.1.484-1.518,1.254-1.518s1.254.418,1.254,1.518v8.316c0,1.1-.484,1.518-1.254,1.518s-1.254-.418-1.254-1.518ZM37.158-3.7c0,2.464,1.3,3.872,3.674,3.872S44.506-1.232,44.506-3.7V-11.7c0-2.464-1.3-3.872-3.674-3.872s-3.674,1.408-3.674,3.872ZM46.068,0h2.42V-15.4h-2.42Zm4.18,0h6.4V-2.2H52.668V-15.4h-2.42ZM61.116,0h3.828c2.42,0,3.608-1.342,3.608-3.806v-7.788c0-2.464-1.188-3.806-3.608-3.806H61.116ZM64.9-13.2c.77,0,1.232.4,1.232,1.5V-3.7c0,1.1-.462,1.5-1.232,1.5H63.536v-11Zm5.082-2.2V-3.674C69.982-1.21,71.214.2,73.59.2S77.2-1.21,77.2-3.674V-15.4H74.91V-3.52c0,1.1-.484,1.5-1.254,1.5S72.4-2.42,72.4-3.52V-15.4Zm12.21,0H78.826V0h2.112V-10.89L82.742,0H85.03L86.7-11.044V0H88.99V-15.4H85.624L83.974-4.466Zm12.122,0H90.75V0h2.42V-5.786h1.144c2.42,0,3.608-1.342,3.608-3.806v-2C97.922-14.058,96.734-15.4,94.314-15.4Zm0,2.2c.77,0,1.188.352,1.188,1.452v2.31c0,1.1-.418,1.452-1.188,1.452H93.17V-13.2ZM106-15.4c-2.42,0-3.388.9-3.388,3.366v8.668C102.608-.9,103.576,0,106,0h.748V-1.98h-.594c-.77,0-1.122-.286-1.122-1.386v-8.668c0-1.1.352-1.386,1.122-1.386h.594V-15.4ZM114.29,0H117.5l1.716-15.4h-2.112L115.852-3.168,114.642-15.4H112.31L111.144-3.256l-1.3-12.144h-2.354L109.208,0h3.322l.88-8.206Zm9.7-15.4h-3.564V0h2.42V-5.786h1.144c2.42,0,3.608-1.342,3.608-3.806v-2C127.6-14.058,126.412-15.4,123.992-15.4Zm0,2.2c.77,0,1.188.352,1.188,1.452v2.31c0,1.1-.418,1.452-1.188,1.452h-1.144V-13.2Zm4.312-2.2v1.98h.594c.77,0,1.122.286,1.122,1.386v8.668c0,1.1-.352,1.386-1.122,1.386H128.3V0h.748c2.42,0,3.388-.9,3.388-3.366v-8.668c0-2.464-.968-3.366-3.388-3.366Z" transform="translate(431.89 283.92)" fill="#fff"/>
    </g>
    <path id="Path_9468" data-name="Path 9468" d="M5399.816,5433.5l8.16,19.992,7.609,23.857,4.619,22.651v5.988l24.386,32.457,41.664-13.079,51.979-8.239,35.708-11.139,34.295,5.879,41.362,9.435,67.351,30.407,58.8,11.256,15.123,7.647,50.105-12.665,28.8-2.935-16.526-93.873L5677.1,5396.8l-24.341-1.857-44.521-5.466-29.6,3.352-40.406,18.919H5527.1l-35.1,12.729Z" transform="translate(-4815.961 -4494.82)" fill="#ffb100" opacity="0.4"/>
    <g transform="matrix(1, 0, 0, 1, 100.55, 139.95)" filter="url(#Path_11756)">
      <path id="Path_11756-2" data-name="Path 11756" d="M2.82-10.78c0-1,.44-1.38,1.14-1.38s1.14.38,1.14,1.38v7.56c0,1-.44,1.38-1.14,1.38S2.82-2.22,2.82-3.22ZM.62-3.36C.62-1.12,1.8.16,3.96.16S7.3-1.12,7.3-3.36v-7.28c0-2.24-1.18-3.52-3.34-3.52S.62-12.88.62-10.64ZM12.04-14H8.72V0h3.46c2.2,0,3.34-1.16,3.34-3.32V-4.46c0-1.48-.46-2.54-1.64-3,.98-.46,1.42-1.38,1.42-2.82v-.5C15.3-12.94,14.32-14,12.04-14ZM11.9-6.3c1,0,1.42.4,1.42,1.7v1.22c0,1.04-.4,1.38-1.14,1.38H10.92V-6.3Zm.08-5.7c.78,0,1.12.44,1.12,1.44v.78c0,1.12-.5,1.48-1.32,1.48h-.86V-12ZM19.94,0h3.48c2.2,0,3.28-1.22,3.28-3.46v-7.08c0-2.24-1.08-3.46-3.28-3.46H19.94Zm3.44-12c.7,0,1.12.36,1.12,1.36v7.28c0,1-.42,1.36-1.12,1.36H22.14V-12ZM28-14V-3.34C28-1.1,29.12.18,31.28.18s3.28-1.28,3.28-3.52V-14H32.48V-3.2c0,1-.44,1.36-1.14,1.36S30.2-2.2,30.2-3.2V-14Zm11.1,0H36.04V0h1.92V-9.9L39.6,0h2.08L43.2-10.04V0h2.08V-14H42.22l-1.5,9.94Zm11.02,0H46.88V0h2.2V-5.26h1.04c2.2,0,3.28-1.22,3.28-3.46v-1.82C53.4-12.78,52.32-14,50.12-14Zm0,2c.7,0,1.08.32,1.08,1.32v2.1c0,1-.38,1.32-1.08,1.32H49.08V-12Zm10.62-2c-2.2,0-3.08.82-3.08,3.06v7.88c0,2.24.88,3.06,3.08,3.06h.68V-1.8h-.54c-.7,0-1.02-.26-1.02-1.26v-7.88c0-1,.32-1.26,1.02-1.26h.54V-14Zm1.52,3.36c0,4,4.3,4.54,4.3,7.42,0,1-.44,1.36-1.14,1.36s-1.14-.36-1.14-1.36v-1H62.2v.86c0,2.24,1.12,3.52,3.28,3.52s3.28-1.28,3.28-3.52c0-4-4.3-4.54-4.3-7.42,0-1,.4-1.38,1.1-1.38s1.1.38,1.1,1.38v.58h2.08v-.44c0-2.24-1.1-3.52-3.24-3.52S62.26-12.88,62.26-10.64Zm9.78-.14c0-1,.44-1.38,1.14-1.38s1.14.38,1.14,1.38v7.56c0,1-.44,1.38-1.14,1.38s-1.14-.38-1.14-1.38Zm-2.2,7.42c0,2.24,1.18,3.52,3.34,3.52s3.34-1.28,3.34-3.52v-7.28c0-2.24-1.18-3.52-3.34-3.52s-3.34,1.28-3.34,3.52Zm8-10.64V-3.34c0,2.24,1.12,3.52,3.28,3.52S84.4-1.1,84.4-3.34V-14H82.32V-3.2c0,1-.44,1.36-1.14,1.36S80.04-2.2,80.04-3.2V-14Zm7.42,2h2.3V0h2.2V-12h2.3v-2h-6.8Zm9.96,6h2.5V0h2.24V-14H97.72v6h-2.5v-6h-2.2V0h2.2Zm12.68-8h-3.24V0h2.2V-5.26h1.04c2.2,0,3.28-1.22,3.28-3.46v-1.82C111.18-12.78,110.1-14,107.9-14Zm0,2c.7,0,1.08.32,1.08,1.32v2.1c0,1-.38,1.32-1.08,1.32h-1.04V-12Zm4.3,12h2.2V-14h-2.2Zm3.16-12h2.3V0h2.2V-12h2.3v-2h-6.8Zm7.44-2v1.8h.54c.7,0,1.02.26,1.02,1.26v7.88c0,1-.32,1.26-1.02,1.26h-.54V0h.68c2.2,0,3.08-.82,3.08-3.06v-7.88c0-2.24-.88-3.06-3.08-3.06Z" transform="translate(656.05 846.32)" fill="#fff"/>
    </g>
    <g transform="matrix(1, 0, 0, 1, 100.55, 139.95)" filter="url(#Path_11757)">
      <path id="Path_11757-2" data-name="Path 11757" d="M4.04-14H.8V0H3V-5.26H4.04c2.2,0,3.28-1.22,3.28-3.46v-1.82C7.32-12.78,6.24-14,4.04-14Zm0,2c.7,0,1.08.32,1.08,1.32v2.1c0,1-.38,1.32-1.08,1.32H3V-12ZM15.18,0a4.123,4.123,0,0,1-.24-1.7V-3.86c0-1.46-.36-2.52-1.46-2.98a2.791,2.791,0,0,0,1.44-2.84v-1.1c0-2.16-.98-3.22-3.26-3.22H8.34V0h2.2V-5.7h.76c1,0,1.44.48,1.44,1.78v2.2A4.306,4.306,0,0,0,12.94,0ZM11.6-12c.78,0,1.12.44,1.12,1.44v1.38c0,1.12-.5,1.48-1.32,1.48h-.86V-12Zm6.8,1.22c0-1,.44-1.38,1.14-1.38s1.14.38,1.14,1.38v7.56c0,1-.44,1.38-1.14,1.38S18.4-2.22,18.4-3.22ZM16.2-3.36c0,2.24,1.18,3.52,3.34,3.52s3.34-1.28,3.34-3.52v-7.28c0-2.24-1.18-3.52-3.34-3.52s-3.34,1.28-3.34,3.52ZM27.54-14H24.3V0h2.2V-5.26h1.04c2.2,0,3.28-1.22,3.28-3.46v-1.82C30.82-12.78,29.74-14,27.54-14Zm0,2c.7,0,1.08.32,1.08,1.32v2.1c0,1-.38,1.32-1.08,1.32H26.5V-12Zm6.32,1.22c0-1,.44-1.38,1.14-1.38s1.14.38,1.14,1.38v7.56c0,1-.44,1.38-1.14,1.38s-1.14-.38-1.14-1.38Zm-2.2,7.42C31.66-1.12,32.84.16,35,.16s3.34-1.28,3.34-3.52v-7.28c0-2.24-1.18-3.52-3.34-3.52s-3.34,1.28-3.34,3.52Zm7.82-7.28c0,4,4.3,4.54,4.3,7.42,0,1-.44,1.36-1.14,1.36S41.5-2.22,41.5-3.22v-1H39.42v.86c0,2.24,1.12,3.52,3.28,3.52s3.28-1.28,3.28-3.52c0-4-4.3-4.54-4.3-7.42,0-1,.4-1.38,1.1-1.38s1.1.38,1.1,1.38v.58h2.08v-.44c0-2.24-1.1-3.52-3.24-3.52S39.48-12.88,39.48-10.64ZM49.44-12h3.8v-2h-6V0h6V-2h-3.8V-6.1h3.02v-2H49.44ZM54.6,0h3.48c2.2,0,3.28-1.22,3.28-3.46v-7.08c0-2.24-1.08-3.46-3.28-3.46H54.6Zm3.44-12c.7,0,1.12.36,1.12,1.36v7.28c0,1-.42,1.36-1.12,1.36H56.8V-12Zm9.84,1.22c0-1,.44-1.38,1.14-1.38s1.14.38,1.14,1.38v7.56c0,1-.44,1.38-1.14,1.38s-1.14-.38-1.14-1.38Zm-2.2,7.42c0,2.24,1.18,3.52,3.34,3.52s3.34-1.28,3.34-3.52v-7.28c0-2.24-1.18-3.52-3.34-3.52s-3.34,1.28-3.34,3.52ZM77.1-14H73.78V0h3.46c2.2,0,3.34-1.16,3.34-3.32V-4.46c0-1.48-.46-2.54-1.64-3,.98-.46,1.42-1.38,1.42-2.82v-.5C80.36-12.94,79.38-14,77.1-14Zm-.14,7.7c1,0,1.42.4,1.42,1.7v1.22c0,1.04-.4,1.38-1.14,1.38H75.98V-6.3Zm.08-5.7c.78,0,1.12.44,1.12,1.44v.78c0,1.12-.5,1.48-1.32,1.48h-.86V-12ZM85,0h3.48c2.2,0,3.28-1.22,3.28-3.46v-7.08c0-2.24-1.08-3.46-3.28-3.46H85Zm3.44-12c.7,0,1.12.36,1.12,1.36v7.28c0,1-.42,1.36-1.12,1.36H87.2V-12Zm4.62-2V-3.34c0,2.24,1.12,3.52,3.28,3.52s3.28-1.28,3.28-3.52V-14H97.54V-3.2c0,1-.44,1.36-1.14,1.36S95.26-2.2,95.26-3.2V-14Zm11.1,0H101.1V0h1.92V-9.9L104.66,0h2.08l1.52-10.04V0h2.08V-14h-3.06l-1.5,9.94Zm11.02,0h-3.24V0h2.2V-5.26h1.04c2.2,0,3.28-1.22,3.28-3.46v-1.82C118.46-12.78,117.38-14,115.18-14Zm0,2c.7,0,1.08.32,1.08,1.32v2.1c0,1-.38,1.32-1.08,1.32h-1.04V-12ZM4.02,10c-2.2,0-3.08.82-3.08,3.06v7.88c0,2.24.88,3.06,3.08,3.06H4.7V22.2H4.16c-.7,0-1.02-.26-1.02-1.26V13.06c0-1,.32-1.26,1.02-1.26H4.7V10Zm4,2h3.8V10h-6V24h6V22H8.02V17.9h3.02v-2H8.02Zm10.04-2H14.84L12.6,24h2.02L15,21.46h2.7L18.08,24H20.3Zm-1.72,2.48,1.06,7.08H15.28Zm4.7.88c0,4,4.3,4.54,4.3,7.42,0,1-.44,1.36-1.14,1.36s-1.14-.36-1.14-1.36v-1H20.98v.86c0,2.24,1.12,3.52,3.28,3.52s3.28-1.28,3.28-3.52c0-4-4.3-4.54-4.3-7.42,0-1,.4-1.38,1.1-1.38s1.1.38,1.1,1.38v.58h2.08v-.44c0-2.24-1.1-3.52-3.24-3.52S21.04,11.12,21.04,13.36ZM28.16,12h2.3V24h2.2V12h2.3V10h-6.8Zm14.1-2H39.02V24h2.2V18.74h1.04c2.2,0,3.28-1.22,3.28-3.46V13.46C45.54,11.22,44.46,10,42.26,10Zm0,2c.7,0,1.08.32,1.08,1.32v2.1c0,1-.38,1.32-1.08,1.32H41.22V12Zm4.4,12h2.2V10h-2.2Zm3.16-12h2.3V24h2.2V12h2.3V10h-6.8Zm7.44-2v1.8h.54c.7,0,1.02.26,1.02,1.26v7.88c0,1-.32,1.26-1.02,1.26h-.54V24h.68c2.2,0,3.08-.82,3.08-3.06V13.06c0-2.24-.88-3.06-3.08-3.06Z" transform="translate(1103.44 909.84)" fill="#fff"/>
    </g>
    <path id="Path_9476" data-name="Path 9476" d="M5095.008,5369.48l-2.675,16.947-6.095,1.808v4.431h1.18v2.744l1.065,1.126h3.85l1.015-1.885H5098l3.534,3.284h4.56v1.323h2.851v-3.848s3.153-3.71,6.946-3.748,4.037-.894,4.037-.894l2.024-2.659h3.59V5385l3.691-3.149h5.419l1.076-1.551v-1.681l-1.6-1.021h-4.75l-6.5-.962-4.95-3.456h-4.673l-4.356-3.213v-2.271l-1.46-1.433h-2.157l-1.932,2.256h-2.066v.968Z" transform="translate(-4444 -4493)" fill="#fff" opacity="0.4"/>
    <path id="Path_9477" data-name="Path 9477" d="M5165.156,5376.558l-2.62,3.524-11.827,10.993-2.61,7.063v3.306l2.61,2.147h1.563l20.241-17.4,6.933-4.436,4.351-6.5-.4-2.592-3.946-2.848h-5.79Z" transform="translate(-4444 -4493)" fill="#fff" opacity="0.4"/>
    <path id="Path_9478" data-name="Path 9478" d="M4986.178,5449.737l-2.426,17.993h-7.23v4.961l44.428,3.022-9.425-30.49-11.644,1.211v4.857Z" transform="translate(-4444 -4493)" fill="#fff" opacity="0.4"/>
    <path id="Path_11752" data-name="Path 11752" d="M0,0H52V32H0Z" transform="translate(712 336.147)" fill="#fff" opacity="0.1"/>
    <path id="Path_9480" data-name="Path 9480" d="M5277.086,5291.607v66l48-2.066v-61.6Z" transform="translate(-4813.661 -4494.467)" fill="#9398aa" opacity="0.4"/>
    <path id="Path_9495" data-name="Path 9495" d="M5655.593,4883.335h-5.784a93.436,93.436,0,0,0-14.324,25.2l-.629,8.389a33.682,33.682,0,0,1,7.174,9.664,42.956,42.956,0,0,1,3.143,12.583v9.293l.524,1.373v9.112l.746,2.159s.144,6,1.41,9.57a8.3,8.3,0,0,0,3.656,4.72,20.314,20.314,0,0,0,4.468,1.269,51.621,51.621,0,0,0,6.125.537,7.816,7.816,0,0,1,3.945-1.805,8.36,8.36,0,0,1,4.248,1.269h8.5a17.931,17.931,0,0,0,2.553-2.705,12.623,12.623,0,0,0,1.535-5.776,11.939,11.939,0,0,0-.562-3.341,132.779,132.779,0,0,1-7.518-11.312,61.11,61.11,0,0,1-4.51-9.761v-12.336s1.4-4.9,2.37-9.474,1.525-8.834,1.525-8.834v-11.246s-2.667-8.166-7.317-12.8A23.3,23.3,0,0,0,5655.593,4883.335Z" transform="translate(-4814 -4493)" fill="#58a55c" opacity="0.6"/>
    <path id="Path_9496" data-name="Path 9496" d="M5793.182,5060.479l-7.385,19.8-48.323,31.846,4.99,24.887,47.495,25.438,11.263,12.687L5827,5185l10.555-15.514,3.636-13.758-6.441-4.515-7.75-47.993,1.662-19.485-17.545-1.619,4.8-17.837Z" transform="translate(-4814 -4493)" fill="#58a55c" opacity="0.4"/>
    <path id="Path_9497" data-name="Path 9497" d="M6143.76,5230.927c11.394,0,56.9,19.287,75.876,27.874s13.476,39.621,13.476,39.621l-3.78,17.127-30.038-10.695-22.775-17.193-17.223-11.542-6.4,39.43,15.9,22.391,7.725,22.268h-14.862l-4.964,1.545H6143.76l-4.8-29.691,2.175-27.208v-59.882l2.629-5.692-21.634-13.024,2.5-3.816,6.662,3.816,2.347-3.816,10.122,5.909Z" transform="translate(-4814 -4493)" fill="#58a55c" opacity="0.4"/>
    <path id="Path_9498" data-name="Path 9498" d="M6197.162,5104.473a28.613,28.613,0,0,0,12.88,4.443l1.709-3.334,7.2,1.049,2.3-2.919h9.866l-1.065,6.6,4.571,6.44-3.506,6.749-19.36-9.116L6204,5123.5l-33.053-11.341-7.61-13.845,16.232-10.323,13.014,7.278Z" transform="translate(-4814 -4493)" fill="#58a55c" opacity="0.6"/>
    <g transform="matrix(1, 0, 0, 1, 100.55, 139.95)" filter="url(#Path_11758)">
      <path id="Path_11758-2" data-name="Path 11758" d="M5.832,0H8.46l1.4-12.6H8.136L7.11-2.592,6.12-12.6H4.212L3.258-2.664,2.2-12.6H.27L1.674,0H4.392l.72-6.714Zm6.84-9.7c0-.9.4-1.242,1.026-1.242s1.026.342,1.026,1.242v6.8c0,.9-.4,1.242-1.026,1.242S12.672-2,12.672-2.9Zm-1.98,6.678c0,2.016,1.062,3.168,3.006,3.168S16.7-1.008,16.7-3.024V-9.576c0-2.016-1.062-3.168-3.006-3.168s-3.006,1.152-3.006,3.168ZM24.138,0a3.711,3.711,0,0,1-.216-1.53V-3.474c0-1.314-.324-2.268-1.314-2.682a2.512,2.512,0,0,0,1.3-2.556V-9.7c0-1.944-.882-2.9-2.934-2.9H17.982V0h1.98V-5.13h.684c.9,0,1.3.432,1.3,1.6v1.98A3.875,3.875,0,0,0,22.122,0ZM20.916-10.8c.7,0,1.008.4,1.008,1.3v1.242c0,1.008-.45,1.332-1.188,1.332h-.774V-10.8ZM29.736,0H31.77L29.016-6.984,31.77-12.6H29.79L27.2-7.11V-12.6h-1.98V0H27.2V-3.87l.612-1.152Zm2.592-9.576c0,3.6,3.87,4.086,3.87,6.678,0,.9-.4,1.224-1.026,1.224S34.146-2,34.146-2.9v-.9H32.274v.774c0,2.016,1.008,3.168,2.952,3.168s2.952-1.152,2.952-3.168c0-3.6-3.87-4.086-3.87-6.678,0-.9.36-1.242.99-1.242s.99.342.99,1.242v.522H38.16v-.4c0-2.016-.99-3.168-2.916-3.168S32.328-11.592,32.328-9.576ZM41.292-5.4h2.25V0h2.016V-12.6H43.542v5.4h-2.25v-5.4h-1.98V0h1.98Zm7.524-4.3c0-.9.4-1.242,1.026-1.242s1.026.342,1.026,1.242v6.8c0,.9-.4,1.242-1.026,1.242S48.816-2,48.816-2.9Zm-1.98,6.678c0,2.016,1.062,3.168,3.006,3.168s3.006-1.152,3.006-3.168V-9.576c0-2.016-1.062-3.168-3.006-3.168s-3.006,1.152-3.006,3.168ZM57.042-12.6H54.126V0h1.98V-4.734h.936c1.98,0,2.952-1.1,2.952-3.114V-9.486C59.994-11.5,59.022-12.6,57.042-12.6Zm0,1.8c.63,0,.972.288.972,1.188v1.89c0,.9-.342,1.188-.972,1.188h-.936V-10.8Z" transform="translate(574.81 685.69)" fill="#fff"/>
    </g>
    <g transform="matrix(1, 0, 0, 1, 100.55, 139.95)" filter="url(#Path_11759)">
      <path id="Path_11759-2" data-name="Path 11759" d="M.468-9.576c0,3.6,3.87,4.086,3.87,6.678,0,.9-.4,1.224-1.026,1.224S2.286-2,2.286-2.9v-.9H.414v.774C.414-1.008,1.422.144,3.366.144S6.318-1.008,6.318-3.024c0-3.6-3.87-4.086-3.87-6.678,0-.9.36-1.242.99-1.242s.99.342.99,1.242v.522H6.3v-.4c0-2.016-.99-3.168-2.916-3.168S.468-11.592.468-9.576ZM6.876-10.8h2.07V0h1.98V-10.8H13v-1.8H6.876Zm8.8,1.1c0-.9.4-1.242,1.026-1.242S17.73-10.6,17.73-9.7v6.8c0,.9-.4,1.242-1.026,1.242S15.678-2,15.678-2.9ZM13.7-3.024C13.7-1.008,14.76.144,16.7.144S19.71-1.008,19.71-3.024V-9.576c0-2.016-1.062-3.168-3.006-3.168S13.7-11.592,13.7-9.576ZM24.858-4.7v1.8c0,.9-.4,1.224-1.026,1.224S22.806-2,22.806-2.9V-9.7c0-.9.4-1.242,1.026-1.242s1.026.342,1.026,1.242v1.35H26.73V-9.576c0-2.016-1.008-3.168-2.952-3.168s-2.952,1.152-2.952,3.168v6.552c0,2.016,1.008,3.168,2.952,3.168S26.73-1.008,26.73-3.024V-4.7Zm7.6,4.7h2.034L31.734-6.984,34.488-12.6h-1.98L29.916-7.11V-12.6h-1.98V0h1.98V-3.87l.612-1.152Zm4.788,0h1.98V-4.176l2.5-8.424h-1.89L38.322-6.858,36.81-12.6H34.74l2.5,8.424Zm8.784-12.6h-2.9L41.112,0H42.93l.342-2.286H45.7L46.044,0h2Zm-1.548,2.232L45.432-4H43.524ZM55.116,0A3.711,3.711,0,0,1,54.9-1.53V-3.474c0-1.314-.324-2.268-1.314-2.682a2.512,2.512,0,0,0,1.3-2.556V-9.7c0-1.944-.882-2.9-2.934-2.9H48.96V0h1.98V-5.13h.684c.9,0,1.3.432,1.3,1.6v1.98A3.875,3.875,0,0,0,53.1,0ZM51.894-10.8c.7,0,1.008.4,1.008,1.3v1.242c0,1.008-.45,1.332-1.188,1.332H50.94V-10.8ZM56.2,0h3.132c1.98,0,2.952-1.1,2.952-3.114V-9.486c0-2.016-.972-3.114-2.952-3.114H56.2Zm3.1-10.8c.63,0,1.008.324,1.008,1.224v6.552c0,.9-.378,1.224-1.008,1.224H58.176v-9Z" transform="translate(509.02 747.31)" fill="#fff"/>
    </g>
    <g transform="matrix(1, 0, 0, 1, 100.55, 139.95)" filter="url(#Path_11760)">
      <path id="Path_11760-2" data-name="Path 11760" d="M.312-6.384c0,2.4,2.58,2.724,2.58,4.452,0,.6-.264.816-.684.816s-.684-.216-.684-.816v-.6H.276v.516C.276-.672.948.1,2.244.1S4.212-.672,4.212-2.016c0-2.4-2.58-2.724-2.58-4.452,0-.6.24-.828.66-.828s.66.228.66.828v.348H4.2v-.264C4.2-7.728,3.54-8.5,2.256-8.5S.312-7.728.312-6.384ZM4.584-7.2h1.38V0h1.32V-7.2h1.38V-8.4H4.584Zm5.868.732c0-.6.264-.828.684-.828s.684.228.684.828v4.536c0,.6-.264.828-.684.828s-.684-.228-.684-.828ZM9.132-2.016a1.864,1.864,0,0,0,2,2.112,1.864,1.864,0,0,0,2-2.112V-6.384a1.864,1.864,0,0,0-2-2.112,1.864,1.864,0,0,0-2,2.112Zm7.44-1.116v1.2c0,.6-.264.816-.684.816s-.684-.216-.684-.816V-6.468c0-.6.264-.828.684-.828s.684.228.684.828v.9H17.82v-.816c0-1.344-.672-2.112-1.968-2.112s-1.968.768-1.968,2.112v4.368C13.884-.672,14.556.1,15.852.1S17.82-.672,17.82-2.016V-3.132ZM21.636,0h1.356L21.156-4.656,22.992-8.4h-1.32L19.944-4.74V-8.4h-1.32V0h1.32V-2.58l.408-.768Zm3.192,0h1.32V-2.784L27.816-8.4h-1.26L25.548-4.572,24.54-8.4H23.16l1.668,5.616Zm5.856-8.4H28.752L27.408,0H28.62l.228-1.524h1.62L30.7,0h1.332ZM29.652-6.912l.636,4.248H29.016ZM36.744,0A2.474,2.474,0,0,1,36.6-1.02v-1.3c0-.876-.216-1.512-.876-1.788a1.675,1.675,0,0,0,.864-1.7v-.66c0-1.3-.588-1.932-1.956-1.932H32.64V0h1.32V-3.42h.456c.6,0,.864.288.864,1.068v1.32A2.583,2.583,0,0,0,35.4,0ZM34.6-7.2c.468,0,.672.264.672.864v.828c0,.672-.3.888-.792.888H33.96V-7.2ZM37.464,0h2.088c1.32,0,1.968-.732,1.968-2.076V-6.324c0-1.344-.648-2.076-1.968-2.076H37.464Zm2.064-7.2c.42,0,.672.216.672.816v4.368c0,.6-.252.816-.672.816h-.744v-6Zm7.308.864c0,2.424-2.616,2.832-2.616,5.3V0h3.816V-1.2h-2.5a.908.908,0,0,1-.012-.18c0-1.38,2.628-2.364,2.628-5,0-1.344-.672-2.112-1.968-2.112s-1.968.768-1.968,2.112v.816h1.248v-.9c0-.6.264-.828.684-.828S46.836-7.092,46.836-6.336Z" transform="translate(600.91 756.75)" fill="#fff"/>
    </g>
    <g transform="matrix(1, 0, 0, 1, 100.55, 139.95)" filter="url(#Path_11761)">
      <path id="Path_11761-2" data-name="Path 11761" d="M-41.958-4.7v1.8c0,.9-.4,1.224-1.026,1.224S-44.01-2-44.01-2.9V-9.7c0-.9.4-1.242,1.026-1.242s1.026.342,1.026,1.242v1.35h1.872V-9.576c0-2.016-1.008-3.168-2.952-3.168s-2.952,1.152-2.952,3.168v6.552c0,2.016,1.008,3.168,2.952,3.168s2.952-1.152,2.952-3.168V-4.7Zm4.9-5c0-.9.4-1.242,1.026-1.242S-35.01-10.6-35.01-9.7v6.8c0,.9-.4,1.242-1.026,1.242S-37.062-2-37.062-2.9Zm-1.98,6.678c0,2.016,1.062,3.168,3.006,3.168s3.006-1.152,3.006-3.168V-9.576c0-2.016-1.062-3.168-3.006-3.168s-3.006,1.152-3.006,3.168ZM-27.378-12.6h-2.9L-32.292,0h1.818l.342-2.286h2.43L-27.36,0h2Zm-1.548,2.232L-27.972-4H-29.88ZM-24.444,0h5.238V-1.8h-3.258V-12.6h-1.98Zm8.64-9.576c0,3.6,3.87,4.086,3.87,6.678,0,.9-.4,1.224-1.026,1.224S-13.986-2-13.986-2.9v-.9h-1.872v.774c0,2.016,1.008,3.168,2.952,3.168s2.952-1.152,2.952-3.168c0-3.6-3.87-4.086-3.87-6.678,0-.9.36-1.242.99-1.242s.99.342.99,1.242v.522h1.872v-.4c0-2.016-.99-3.168-2.916-3.168S-15.8-11.592-15.8-9.576ZM-9.4-10.8h2.07V0h1.98V-10.8h2.07v-1.8H-9.4Zm8.8,1.1c0-.9.4-1.242,1.026-1.242S1.458-10.6,1.458-9.7v6.8c0,.9-.4,1.242-1.026,1.242S-.594-2-.594-2.9Zm-1.98,6.678C-2.574-1.008-1.512.144.432.144S3.438-1.008,3.438-3.024V-9.576c0-2.016-1.062-3.168-3.006-3.168s-3.006,1.152-3.006,3.168ZM8.586-4.7v1.8c0,.9-.4,1.224-1.026,1.224S6.534-2,6.534-2.9V-9.7c0-.9.4-1.242,1.026-1.242S8.586-10.6,8.586-9.7v1.35h1.872V-9.576c0-2.016-1.008-3.168-2.952-3.168S4.554-11.592,4.554-9.576v6.552C4.554-1.008,5.562.144,7.506.144s2.952-1.152,2.952-3.168V-4.7Zm7.6,4.7h2.034L15.462-6.984,18.216-12.6h-1.98L13.644-7.11V-12.6h-1.98V0h1.98V-3.87l.612-1.152ZM20.97,0h1.98V-4.176l2.5-8.424h-1.89L22.05-6.858,20.538-12.6h-2.07l2.5,8.424Zm8.784-12.6h-2.9L24.84,0h1.818L27-2.286h2.43L29.772,0h2Zm-1.548,2.232L29.16-4H27.252ZM38.844,0a3.711,3.711,0,0,1-.216-1.53V-3.474c0-1.314-.324-2.268-1.314-2.682a2.512,2.512,0,0,0,1.3-2.556V-9.7c0-1.944-.882-2.9-2.934-2.9H32.688V0h1.98V-5.13h.684c.9,0,1.3.432,1.3,1.6v1.98A3.875,3.875,0,0,0,36.828,0ZM35.622-10.8c.7,0,1.008.4,1.008,1.3v1.242c0,1.008-.45,1.332-1.188,1.332h-.774V-10.8ZM39.924,0h3.132c1.98,0,2.952-1.1,2.952-3.114V-9.486c0-2.016-.972-3.114-2.952-3.114H39.924Zm3.1-10.8c.63,0,1.008.324,1.008,1.224v6.552c0,.9-.378,1.224-1.008,1.224H41.9v-9ZM-25.7,5.4c-1.98,0-2.772.738-2.772,2.754v7.092c0,2.016.792,2.754,2.772,2.754h.612V16.38h-.486c-.63,0-.918-.234-.918-1.134V8.154c0-.9.288-1.134.918-1.134h.486V5.4ZM-18.909,18h2.628l1.4-12.6h-1.728l-1.026,10.008L-18.621,5.4h-1.908l-.954,9.936L-22.545,5.4h-1.926l1.4,12.6h2.718l.72-6.714Zm7-10.8h3.42V5.4h-5.4V18h5.4V16.2h-3.42V12.51h2.718v-1.8h-2.718Zm4.392,1.224c0,3.6,3.87,4.086,3.87,6.678,0,.9-.4,1.224-1.026,1.224S-5.7,16-5.7,15.1v-.9H-7.569v.774c0,2.016,1.008,3.168,2.952,3.168s2.952-1.152,2.952-3.168c0-3.6-3.87-4.086-3.87-6.678,0-.9.36-1.242.99-1.242s.99.342.99,1.242V8.82h1.872v-.4c0-2.016-.99-3.168-2.916-3.168S-7.515,6.408-7.515,8.424ZM-1.107,7.2H.963V18h1.98V7.2h2.07V5.4h-6.12Zm12.69-1.8H8.667V18h1.98V13.266h.936c1.98,0,2.952-1.1,2.952-3.114V8.514C14.535,6.5,13.563,5.4,11.583,5.4Zm0,1.8c.63,0,.972.288.972,1.188v1.89c0,.9-.342,1.188-.972,1.188h-.936V7.2ZM15.543,18h1.98V5.4h-1.98ZM18.387,7.2h2.07V18h1.98V7.2h2.07V5.4h-6.12Zm6.7-1.8V7.02h.486c.63,0,.918.234.918,1.134v7.092c0,.9-.288,1.134-.918,1.134h-.486V18h.612c1.98,0,2.772-.738,2.772-2.754V8.154c0-2.016-.792-2.754-2.772-2.754Z" transform="translate(416.46 691.8)" fill="#fff"/>
    </g>
    <path id="Path_9501" data-name="Path 9501" d="M5886.013,5463.073s-1.671,10.759,1.388,17.208,8.555,23.678,1.165,28.637c-2,1.341-2.327,3.792-1.1,9.435s6.007,13.135,6.007,13.135a11.623,11.623,0,0,0,11.781,0c6.428-3.6,4.51-6.332,11.6-6.455s15.7,0,15.7,0a19.569,19.569,0,0,0,8.3-5.14,28.828,28.828,0,0,0,6.32-10.975c.284-.9,5.207-9.75,5.207-9.75l4.1-9.016,1.232-5.849v-13.348a40.859,40.859,0,0,0-12.6-14.758c-8.784-6.26-22.531-10.282-22.531-10.282h-5.713l-7.639,6.219-7.464,5.76-8.283,2.165Z" transform="translate(-4814 -4493)" fill="#58a55c" opacity="0.4"/>
    <path id="Path_9502" data-name="Path 9502" d="M5538.328,5293.079l-7.095,6.25,24.955,23.089,5.035-7.583Z" transform="translate(-4814 -4493)" fill="#fff" opacity="0.4"/>
    <g transform="matrix(1, 0, 0, 1, 100.55, 139.95)" filter="url(#Path_11762)">
      <path id="Path_11762-2" data-name="Path 11762" d="M3.232-11.2H.64V0H2.4V-4.208h.832c1.76,0,2.624-.976,2.624-2.768V-8.432C5.856-10.224,4.992-11.2,3.232-11.2Zm0,1.6c.56,0,.864.256.864,1.056v1.68c0,.8-.3,1.056-.864,1.056H2.4V-9.6ZM12.224,0a3.3,3.3,0,0,1-.192-1.36V-3.088c0-1.168-.288-2.016-1.168-2.384a2.233,2.233,0,0,0,1.152-2.272v-.88c0-1.728-.784-2.576-2.608-2.576H6.752V0h1.76V-4.56H9.12c.8,0,1.152.384,1.152,1.424v1.76A3.444,3.444,0,0,0,10.432,0ZM9.36-9.6c.624,0,.9.352.9,1.152v1.1c0,.9-.4,1.184-1.056,1.184H8.512V-9.6Zm5.44.976c0-.8.352-1.1.912-1.1s.912.3.912,1.1v6.048c0,.8-.352,1.1-.912,1.1s-.912-.3-.912-1.1ZM13.04-2.688A2.486,2.486,0,0,0,15.712.128a2.486,2.486,0,0,0,2.672-2.816V-8.512a2.486,2.486,0,0,0-2.672-2.816A2.486,2.486,0,0,0,13.04-8.512ZM22.112-11.2H19.52V0h1.76V-4.208h.832c1.76,0,2.624-.976,2.624-2.768V-8.432C24.736-10.224,23.872-11.2,22.112-11.2Zm0,1.6c.56,0,.864.256.864,1.056v1.68c0,.8-.3,1.056-.864,1.056H21.28V-9.6Zm5.056.976c0-.8.352-1.1.912-1.1s.912.3.912,1.1v6.048c0,.8-.352,1.1-.912,1.1s-.912-.3-.912-1.1Zm-1.76,5.936A2.486,2.486,0,0,0,28.08.128a2.486,2.486,0,0,0,2.672-2.816V-8.512a2.486,2.486,0,0,0-2.672-2.816,2.486,2.486,0,0,0-2.672,2.816Zm6.256-5.824c0,3.2,3.44,3.632,3.44,5.936,0,.8-.352,1.088-.912,1.088s-.912-.288-.912-1.088v-.8H31.616v.688c0,1.792.9,2.816,2.624,2.816S36.864-.9,36.864-2.688c0-3.2-3.44-3.632-3.44-5.936,0-.8.32-1.1.88-1.1s.88.3.88,1.1v.464h1.664v-.352c0-1.792-.88-2.816-2.592-2.816S31.664-10.3,31.664-8.512ZM39.632-9.6h3.04v-1.6h-4.8V0h4.8V-1.6h-3.04V-4.88h2.416v-1.6H39.632ZM43.76,0h2.784c1.76,0,2.624-.976,2.624-2.768V-8.432c0-1.792-.864-2.768-2.624-2.768H43.76Zm2.752-9.6c.56,0,.9.288.9,1.088v5.824c0,.8-.336,1.088-.9,1.088H45.52v-8Zm8.016,0h3.04v-1.6h-4.8V0h4.8V-1.6h-3.04V-4.88h2.416v-1.6H54.528Zm8.032-1.6H59.984L58.192,0h1.616l.3-2.032h2.16L62.576,0h1.776ZM61.184-9.216l.848,5.664h-1.7Zm3.76.7c0,3.2,3.44,3.632,3.44,5.936,0,.8-.352,1.088-.912,1.088s-.912-.288-.912-1.088v-.8H64.9v.688c0,1.792.9,2.816,2.624,2.816S70.144-.9,70.144-2.688c0-3.2-3.44-3.632-3.44-5.936,0-.8.32-1.1.88-1.1s.88.3.88,1.1v.464h1.664v-.352c0-1.792-.88-2.816-2.592-2.816S64.944-10.3,64.944-8.512ZM70.64-9.6h1.84V0h1.76V-9.6h1.84v-1.6H70.64Zm11.28-1.6H79.328V0h1.76V-4.208h.832c1.76,0,2.624-.976,2.624-2.768V-8.432C84.544-10.224,83.68-11.2,81.92-11.2Zm0,1.6c.56,0,.864.256.864,1.056v1.68c0,.8-.3,1.056-.864,1.056h-.832V-9.6ZM85.36,0h1.76V-11.2H85.36Zm2.528-9.6h1.84V0h1.76V-9.6h1.84v-1.6h-5.44ZM3.216,9.8c-1.76,0-2.464.656-2.464,2.448v6.3c0,1.792.7,2.448,2.464,2.448H3.76V19.56H3.328c-.56,0-.816-.208-.816-1.008v-6.3c0-.8.256-1.008.816-1.008H3.76V9.8Zm3.2,1.6h2.9V9.8H4.656V21h1.76V16.376H8.688v-1.6H6.416ZM10.08,9.8v8.528c0,1.792.9,2.816,2.624,2.816s2.624-1.024,2.624-2.816V9.8H13.664v8.64c0,.8-.352,1.088-.912,1.088s-.912-.288-.912-1.088V9.8Zm5.936,1.6h1.84V21h1.76V11.4h1.84V9.8h-5.44Zm6.128-1.6v8.528c0,1.792.9,2.816,2.624,2.816s2.624-1.024,2.624-2.816V9.8H25.728v8.64c0,.8-.352,1.088-.912,1.088S23.9,19.24,23.9,18.44V9.8ZM34.064,21a3.3,3.3,0,0,1-.192-1.36V17.912c0-1.168-.288-2.016-1.168-2.384a2.233,2.233,0,0,0,1.152-2.272v-.88c0-1.728-.784-2.576-2.608-2.576H28.592V21h1.76V16.44h.608c.8,0,1.152.384,1.152,1.424v1.76A3.444,3.444,0,0,0,32.272,21ZM31.2,11.4c.624,0,.9.352.9,1.152v1.1c0,.9-.4,1.184-1.056,1.184h-.688V11.4Zm5.584,0h3.04V9.8h-4.8V21h4.8V19.4h-3.04V16.12H39.2v-1.6H36.784ZM47.936,21h2.336L51.52,9.8H49.984l-.912,8.9-.88-8.9H46.5l-.848,8.832L44.7,9.8H42.992L44.24,21h2.416l.64-5.968Zm6.08-8.624c0-.8.352-1.1.912-1.1s.912.3.912,1.1v6.048c0,.8-.352,1.1-.912,1.1s-.912-.3-.912-1.1Zm-1.76,5.936a2.676,2.676,0,1,0,5.344,0V12.488a2.676,2.676,0,1,0-5.344,0ZM64.208,21a3.3,3.3,0,0,1-.192-1.36V17.912c0-1.168-.288-2.016-1.168-2.384A2.233,2.233,0,0,0,64,13.256v-.88c0-1.728-.784-2.576-2.608-2.576H58.736V21H60.5V16.44H61.1c.8,0,1.152.384,1.152,1.424v1.76A3.444,3.444,0,0,0,62.416,21Zm-2.864-9.6c.624,0,.9.352.9,1.152v1.1c0,.9-.4,1.184-1.056,1.184H60.5V11.4Zm7.84,9.6h1.808l-2.448-6.208L70.992,9.8h-1.76l-2.3,4.88V9.8h-1.76V21h1.76V17.56l.544-1.024Zm2.608,0h1.76V9.8h-1.76Zm6.8,0H80.4V9.8H78.832v6.7L77.024,9.8H74.816V21H76.4V12.888ZM84.3,16.36h.8v2.064c0,.8-.352,1.088-.912,1.088s-.912-.288-.912-1.088V12.376c0-.8.352-1.1.912-1.1s.912.3.912,1.1v1.2h1.664V12.488c0-1.792-.9-2.816-2.624-2.816S81.52,10.7,81.52,12.488v5.824c0,1.792.9,2.816,2.624,2.816s2.624-1.024,2.624-2.816V14.76H84.3ZM87.52,9.8v1.44h.432c.56,0,.816.208.816,1.008v6.3c0,.8-.256,1.008-.816,1.008H87.52V21h.544c1.76,0,2.464-.656,2.464-2.448v-6.3c0-1.792-.7-2.448-2.464-2.448Z" transform="translate(809.05 448.91)" fill="#fff"/>
    </g>
    <path id="Path_9469" data-name="Path 9469" d="M5723.138,5218.212l6.824,1.6,104.084,123.007,41.813,25.422,28.5,33.561-71.828,25.582-135.759-48.67-37.8-9.051-45.218-2.9h-39.119l-4.719-5.378v-21.4l4.719-29.22,72.583-32.131,19.188-5.413Z" transform="translate(-4813.667 -4493.383)" fill="#3f52a7" opacity="0.6"/>
    <g transform="matrix(1, 0, 0, 1, 100.55, 139.95)" filter="url(#Path_11763)">
      <path id="Path_11763-2" data-name="Path 11763" d="M.52-10.64c0,4,4.3,4.54,4.3,7.42,0,1-.44,1.36-1.14,1.36S2.54-2.22,2.54-3.22v-1H.46v.86C.46-1.12,1.58.16,3.74.16S7.02-1.12,7.02-3.36c0-4-4.3-4.54-4.3-7.42,0-1,.4-1.38,1.1-1.38s1.1.38,1.1,1.38v.58H7v-.44c0-2.24-1.1-3.52-3.24-3.52S.52-12.88.52-10.64Zm9.78-.14c0-1,.44-1.38,1.14-1.38s1.14.38,1.14,1.38v7.56c0,1-.44,1.38-1.14,1.38S10.3-2.22,10.3-3.22ZM8.1-3.36C8.1-1.12,9.28.16,11.44.16s3.34-1.28,3.34-3.52v-7.28c0-2.24-1.18-3.52-3.34-3.52S8.1-12.88,8.1-10.64ZM16.1-14V-3.34C16.1-1.1,17.22.18,19.38.18s3.28-1.28,3.28-3.52V-14H20.58V-3.2c0,1-.44,1.36-1.14,1.36S18.3-2.2,18.3-3.2V-14Zm7.42,2h2.3V0h2.2V-12h2.3v-2h-6.8Zm9.96,6h2.5V0h2.24V-14H35.98v6h-2.5v-6h-2.2V0h2.2Zm12.68-8H42.92V0h2.2V-5.26h1.04c2.2,0,3.28-1.22,3.28-3.46v-1.82C49.44-12.78,48.36-14,46.16-14Zm0,2c.7,0,1.08.32,1.08,1.32v2.1c0,1-.38,1.32-1.08,1.32H45.12V-12Zm4.3,12h2.2V-14h-2.2Zm3.16-12h2.3V0h2.2V-12h2.3v-2h-6.8Z" transform="translate(759.45 696.2)" fill="#fff"/>
    </g>
    <path id="Path_9555" data-name="Path 9555" d="M483.344,1110.037l3.008,1.408-1.631,12.056s-3.769,2.732-10.708,3.184-7.846-5.543-7.846-5.543v-3.757h5.75v-2.547l-20.282-6.846-2.046,8.325-6.492-1.479,5.1-8.466-22.566.891-10.444-2.737,2-5.763h1.748v-3.844l24.862,1.5.737-4.056h5.048l-.525-3.993s-37.328-15.547-47.372-15.138-63.813,8.465-63.813,8.465l-23.748-24.343H275.081V1050.2H244.3v-8.481l31.947,1.058,46.339-15.743,6.935-12.437,27.837,5.463,4.969,12.1,7.821,5.013,13.967-2.4,6.847,1.627-1.438,7.566,7.438.8,3.574,13.893,21.411,7.1,26.248,13.805,2.794,4.025,1.891-1.681,3.31,3.136,15.723,4.129v10.332l2.9,5.02,3.611-3.855,6.705,3.855Z" fill="#58a55c" opacity="0.6"/>
    <path id="Path_9556" data-name="Path 9556" d="M511.107,1117v-2.469l2.422-1.254h18.354l1.009-4.4h10.2v2.822l1.275,2.19h7.514l6.605-14.958,4.919,4.889-6.79,9.461L563.4,1117v-5.763h6.868l2.663,4.48h1.283l2.654-2.439,5.027.608,2.443-2.649,16.5,2.041-2.67,8.1-15.008,1.292-6.292,3.422-18.818,5.582-3.944,4.12-4.914-3.5h-6.789l-10.523-4.684H525.7l-6.009-3.423h-7.433s-.773,4.654-7.6,5.33c-.484.048-.689-12.515-.689-12.515l-4.106-2.469,1.259-3.295Z" fill="#58a55c" opacity="0.6"/>
    <path id="Path_11764" data-name="Path 11764" d="M0,0H24V29H0Z" transform="translate(220 992)" fill="#9398aa" opacity="0.6"/>
    <path id="Path_9558" data-name="Path 9558" d="M511.942,923.43s2.443,1.08,3.071,2.959-.558,4.555-.558,4.555l-8.84,27.673s-1.348,2.581-3.2,2.988-4.221-1.357-4.221-1.357-16.03-15.284-31.6-28.047-30.689-23-30.689-23" fill="none" stroke="#eb50f7" stroke-width="2"/>
    <path id="Path_9559" data-name="Path 9559" d="M524.519,925.083a12.806,12.806,0,0,0-4.35,2.435,12.627,12.627,0,0,0-2.724,4.149l-9.883,27.837a14.264,14.264,0,0,0-.694,4.914,9.66,9.66,0,0,0,1.5,4.132s14.038,13,23.972,24.331a164.706,164.706,0,0,1,15.765,21s14.779,23.139,18.712,35.6-2.979,14.229-2.979,14.229" fill="none" stroke="#eb50f7" stroke-width="2"/>
    <path id="Path_9560" data-name="Path 9560" d="M434.088,910.591s35.472,26.025,62.741,50.921a485.231,485.231,0,0,1,46.336,48.664l-4.367,4.963a490.1,490.1,0,0,0-46.236-49.424c-26.773-24.8-60.854-49.756-60.854-49.756Z" fill="#707070" stroke="#eb50f7" stroke-width="2"/>
    <path id="Path_9561" data-name="Path 9561" d="M430.531,917.647s59.463,39.118,93.132,78,41.545,77.516,41.545,77.516" fill="none" stroke="#eb50f7" stroke-width="2"/>
    <path id="Path_9564" data-name="Path 9564" d="M1848.693,2252.84v2.605a63.962,63.962,0,0,1,18.552-7.749c9.921-2.164,21.13-.906,21.13-.906l53.487,1.684,9.914-.758,33.519.758s77.688-.784,82.406-85.981c-8.066-78.03-82.406-80.016-82.406-80.016s-30.832-1-52.41,14.493-32.929,41.08-32.929,41.08l-10.123,54.758-15.068,24.042,2.195,1.817,14.887-23.8,10.489-56.821s11.577-26.01,32.317-39.372,49.18-13.6,49.18-13.6,29.067-.923,54.776,22.375,26.532,55.034,26.532,55.034,2.983,31.227-22.677,58.146-57.169,26.151-57.169,26.151l-102.582-2.671a55.531,55.531,0,0,0-16.519,1.49C1857.689,2247.791,1848.693,2252.84,1848.693,2252.84Z" transform="translate(-1634 -1193)" fill="none" stroke="#eb50f7" stroke-width="2"/>
    <path id="Path_9565" data-name="Path 9565" d="M2150.855,1736.478l1.059-40.389,2.008-8.722s14.983-12.519,14.432-17.311a65.945,65.945,0,0,0-2.95-11.536l-5.094-9.939-.933-5.5,4.917-4.661,6.636-2.231,1.256-2.773-1.256-1.684V1626l6.869-4.9h1.248l12.889-13.2s11.589-14.434,20.891-15.888v-4.257L2208.293,1573l-2.131-9.27-1.6-2.961-1.867-7.995s-3.2-9.343-11.863-9.537l-9.734-7.254-5.89-7-7.739-3.468-2.115.529-13,11.768-3.773,4.619L2142.1,1556.5l-4.06,13.516-1.594,5.588v5.4l.514,4.76V1597.2l-3.317,20.851-2.41,6.634v10.91l-18.665,32.033v4.207l.852,1.049v5.565l.938,1.794-3.709,2.059-3.37.535-4.19,2.653,3.135,2.481,8.133,19.159,2.051,3.746,5.288,6.292,1.872,4.277,4.234,6.666,2.27,4.325,3.6,6.146a12.245,12.245,0,0,0,2.088,1.744,22.465,22.465,0,0,0,2.887,1.532,23.846,23.846,0,0,0,7.225-1.532A14.209,14.209,0,0,0,2150.855,1736.478Z" transform="translate(-1634 -1193)" fill="none" stroke="#fff" stroke-width="2" opacity="0.4"/>
    <path id="Path_11765" data-name="Path 11765" d="M0,0H53V44H0Z" transform="translate(1453 877)" fill="#fff" opacity="0.4"/>
    <g transform="matrix(1, 0, 0, 1, 100.55, 139.95)" filter="url(#Path_11753)">
      <path id="Path_11753-2" data-name="Path 11753" d="M3.976-9.8H1.722L.154,0H1.568l.266-1.778h1.89L3.99,0H5.544Zm-1.2,1.736.742,4.956H2.03ZM5.838,0A6.33,6.33,0,0,0,6.58.028c1.162,0,2.212-.5,2.212-2.464V-9.8H7.252v7.476c0,.756-.392.938-.882.938-.168,0-.364,0-.532-.014Zm4,0h1.54V-9.8H9.842Zm4.97-4.06h.7v1.806c0,.7-.308.952-.8.952s-.8-.252-.8-.952V-7.546c0-.7.308-.966.8-.966s.8.266.8.966V-6.5h1.456v-.952c0-1.568-.784-2.464-2.3-2.464s-2.3.9-2.3,2.464v5.1c0,1.568.784,2.464,2.3,2.464s2.3-.9,2.3-2.464V-5.46H14.812ZM21.364-9.8H19.11L17.542,0h1.414l.266-1.778h1.89L21.378,0h1.554Zm-1.2,1.736L20.9-3.108H19.418ZM28.434,0a2.886,2.886,0,0,1-.168-1.19V-2.7c0-1.022-.252-1.764-1.022-2.086a1.954,1.954,0,0,0,1.008-1.988v-.77c0-1.512-.686-2.254-2.282-2.254H23.646V0h1.54V-3.99h.532c.7,0,1.008.336,1.008,1.246V-1.2a3.014,3.014,0,0,0,.14,1.2ZM25.928-8.4c.546,0,.784.308.784,1.008v.966c0,.784-.35,1.036-.924,1.036h-.6V-8.4Zm4.886,4.2h1.75V0h1.568V-9.8H32.564v4.2h-1.75V-9.8h-1.54V0h1.54ZM1.708,5.2H.154L1.666,15h2.3L5.474,5.2H4.06L2.884,13.194ZM6.188,15h1.54V5.2H6.188Zm2.66,0h4.074V13.6H10.388V5.2H8.848Zm4.746,0h4.074V13.6H15.134V5.2h-1.54Zm8.162-9.8H19.5L17.934,15h1.414l.266-1.778H21.5L21.77,15h1.554Zm-1.2,1.736.742,4.956H19.81Zm5.782,4h.7v1.806c0,.7-.308.952-.8.952s-.8-.252-.8-.952V7.454c0-.7.308-.966.8-.966s.8.266.8.966V8.5H28.49V7.552c0-1.568-.784-2.464-2.3-2.464s-2.3.9-2.3,2.464v5.1c0,1.568.784,2.464,2.3,2.464s2.3-.9,2.3-2.464V9.54H26.334Zm4.69-4.34h2.66V5.2h-4.2V15h4.2V13.6h-2.66V10.73h2.114V9.33H31.024Z" transform="translate(744.33 293.11)" fill="#fff"/>
    </g>
    <g transform="matrix(1, 0, 0, 1, 100.55, 139.95)" filter="url(#Path_11754)">
      <path id="Path_11754-2" data-name="Path 11754" d="M4.536,0H6.58L7.672-9.8H6.328l-.8,7.784L4.76-9.8H3.276L2.534-2.072,1.708-9.8H.21L1.3,0H3.416l.56-5.222Zm5.32-7.546c0-.7.308-.966.8-.966s.8.266.8.966v5.292c0,.7-.308.966-.8.966s-.8-.266-.8-.966ZM8.316-2.352A2.175,2.175,0,0,0,10.654.112a2.175,2.175,0,0,0,2.338-2.464v-5.1a2.175,2.175,0,0,0-2.338-2.464A2.175,2.175,0,0,0,8.316-7.448ZM18.774,0a2.886,2.886,0,0,1-.168-1.19V-2.7c0-1.022-.252-1.764-1.022-2.086a1.954,1.954,0,0,0,1.008-1.988v-.77c0-1.512-.686-2.254-2.282-2.254H13.986V0h1.54V-3.99h.532c.7,0,1.008.336,1.008,1.246V-1.2a3.014,3.014,0,0,0,.14,1.2ZM16.268-8.4c.546,0,.784.308.784,1.008v.966c0,.784-.35,1.036-.924,1.036h-.6V-8.4ZM23.128,0H24.71L22.568-5.432,24.71-9.8H23.17L21.154-5.53V-9.8h-1.54V0h1.54V-3.01l.476-.9Zm2.016-7.448c0,2.8,3.01,3.178,3.01,5.194,0,.7-.308.952-.8.952s-.8-.252-.8-.952v-.7H25.1v.6c0,1.568.784,2.464,2.3,2.464s2.3-.9,2.3-2.464c0-2.8-3.01-3.178-3.01-5.194,0-.7.28-.966.77-.966s.77.266.77.966v.406H29.68v-.308c0-1.568-.77-2.464-2.268-2.464S25.144-9.016,25.144-7.448ZM32.116-4.2h1.75V0h1.568V-9.8H33.866v4.2h-1.75V-9.8h-1.54V0h1.54Zm5.852-3.346c0-.7.308-.966.8-.966s.8.266.8.966v5.292c0,.7-.308.966-.8.966s-.8-.266-.8-.966Zm-1.54,5.194A2.175,2.175,0,0,0,38.766.112,2.175,2.175,0,0,0,41.1-2.352v-5.1a2.175,2.175,0,0,0-2.338-2.464,2.175,2.175,0,0,0-2.338,2.464ZM44.366-9.8H42.1V0h1.54V-3.682h.728c1.54,0,2.3-.854,2.3-2.422V-7.378C46.662-8.946,45.906-9.8,44.366-9.8Zm0,1.4c.49,0,.756.224.756.924v1.47c0,.7-.266.924-.756.924h-.728V-8.4Zm7.5-1.4c-1.54,0-2.156.574-2.156,2.142v5.516C49.714-.574,50.33,0,51.87,0h.476V-1.26h-.378c-.49,0-.714-.182-.714-.882V-7.658c0-.7.224-.882.714-.882h.378V-9.8ZM57.148,0h2.044l1.092-9.8H58.94l-.8,7.784L57.372-9.8H55.888l-.742,7.728L54.32-9.8h-1.5L53.914,0h2.114l.56-5.222Zm6.174-9.8H61.054V0h1.54V-3.682h.728c1.54,0,2.3-.854,2.3-2.422V-7.378C65.618-8.946,64.862-9.8,63.322-9.8Zm0,1.4c.49,0,.756.224.756.924v1.47c0,.7-.266.924-.756.924h-.728V-8.4Zm2.744-1.4v1.26h.378c.49,0,.714.182.714.882v5.516c0,.7-.224.882-.714.882h-.378V0h.476C68.082,0,68.7-.574,68.7-2.142V-7.658c0-1.568-.616-2.142-2.156-2.142Z" transform="translate(627.06 216.2)" fill="#fff"/>
    </g>
    <g transform="matrix(1, 0, 0, 1, 100.55, 139.95)" filter="url(#Path_11766)">
      <path id="Path_11766-2" data-name="Path 11766" d="M4.536,0H6.58L7.672-9.8H6.328l-.8,7.784L4.76-9.8H3.276L2.534-2.072,1.708-9.8H.21L1.3,0H3.416l.56-5.222Zm5.32-7.546c0-.7.308-.966.8-.966s.8.266.8.966v5.292c0,.7-.308.966-.8.966s-.8-.266-.8-.966ZM8.316-2.352A2.175,2.175,0,0,0,10.654.112a2.175,2.175,0,0,0,2.338-2.464v-5.1a2.175,2.175,0,0,0-2.338-2.464A2.175,2.175,0,0,0,8.316-7.448ZM18.774,0a2.886,2.886,0,0,1-.168-1.19V-2.7c0-1.022-.252-1.764-1.022-2.086a1.954,1.954,0,0,0,1.008-1.988v-.77c0-1.512-.686-2.254-2.282-2.254H13.986V0h1.54V-3.99h.532c.7,0,1.008.336,1.008,1.246V-1.2a3.014,3.014,0,0,0,.14,1.2ZM16.268-8.4c.546,0,.784.308.784,1.008v.966c0,.784-.35,1.036-.924,1.036h-.6V-8.4ZM23.128,0H24.71L22.568-5.432,24.71-9.8H23.17L21.154-5.53V-9.8h-1.54V0h1.54V-3.01l.476-.9Zm2.016-7.448c0,2.8,3.01,3.178,3.01,5.194,0,.7-.308.952-.8.952s-.8-.252-.8-.952v-.7H25.1v.6c0,1.568.784,2.464,2.3,2.464s2.3-.9,2.3-2.464c0-2.8-3.01-3.178-3.01-5.194,0-.7.28-.966.77-.966s.77.266.77.966v.406H29.68v-.308c0-1.568-.77-2.464-2.268-2.464S25.144-9.016,25.144-7.448ZM32.116-4.2h1.75V0h1.568V-9.8H33.866v4.2h-1.75V-9.8h-1.54V0h1.54Zm5.852-3.346c0-.7.308-.966.8-.966s.8.266.8.966v5.292c0,.7-.308.966-.8.966s-.8-.266-.8-.966Zm-1.54,5.194A2.175,2.175,0,0,0,38.766.112,2.175,2.175,0,0,0,41.1-2.352v-5.1a2.175,2.175,0,0,0-2.338-2.464,2.175,2.175,0,0,0-2.338,2.464ZM44.366-9.8H42.1V0h1.54V-3.682h.728c1.54,0,2.3-.854,2.3-2.422V-7.378C46.662-8.946,45.906-9.8,44.366-9.8Zm0,1.4c.49,0,.756.224.756.924v1.47c0,.7-.266.924-.756.924h-.728V-8.4Zm7.5-1.4c-1.54,0-2.156.574-2.156,2.142v5.516C49.714-.574,50.33,0,51.87,0h.476V-1.26h-.378c-.49,0-.714-.182-.714-.882V-7.658c0-.7.224-.882.714-.882h.378V-9.8Zm2.8,1.4h2.66V-9.8h-4.2V0h4.2V-1.4H54.67V-4.27h2.114v-1.4H54.67Zm5.88-1.4H58.282V0h1.54V-3.682h.728c1.54,0,2.3-.854,2.3-2.422V-7.378C62.846-8.946,62.09-9.8,60.55-9.8Zm0,1.4c.49,0,.756.224.756.924v1.47c0,.7-.266.924-.756.924h-.728V-8.4Zm2.744-1.4v1.26h.378c.49,0,.714.182.714.882v5.516c0,.7-.224.882-.714.882h-.378V0h.476c1.54,0,2.156-.574,2.156-2.142V-7.658c0-1.568-.616-2.142-2.156-2.142Z" transform="translate(1424.45 770.7)" fill="#fff"/>
    </g>
    <g transform="matrix(1, 0, 0, 1, 100.55, 139.95)" filter="url(#Path_11767)">
      <path id="Path_11767-2" data-name="Path 11767" d="M2.828-9.8H.56V0H2.1V-3.682h.728c1.54,0,2.3-.854,2.3-2.422V-7.378C5.124-8.946,4.368-9.8,2.828-9.8Zm0,1.4c.49,0,.756.224.756.924v1.47c0,.7-.266.924-.756.924H2.1V-8.4ZM10.7,0a2.886,2.886,0,0,1-.168-1.19V-2.7c0-1.022-.252-1.764-1.022-2.086a1.954,1.954,0,0,0,1.008-1.988v-.77c0-1.512-.686-2.254-2.282-2.254H5.908V0h1.54V-3.99H7.98c.7,0,1.008.336,1.008,1.246V-1.2A3.014,3.014,0,0,0,9.128,0ZM8.19-8.4c.546,0,.784.308.784,1.008v.966c0,.784-.35,1.036-.924,1.036h-.6V-8.4Zm4.76.854c0-.7.308-.966.8-.966s.8.266.8.966v5.292c0,.7-.308.966-.8.966s-.8-.266-.8-.966ZM11.41-2.352A2.175,2.175,0,0,0,13.748.112a2.175,2.175,0,0,0,2.338-2.464v-5.1a2.175,2.175,0,0,0-2.338-2.464A2.175,2.175,0,0,0,11.41-7.448ZM19.348-9.8H17.08V0h1.54V-3.682h.728c1.54,0,2.3-.854,2.3-2.422V-7.378C21.644-8.946,20.888-9.8,19.348-9.8Zm0,1.4c.49,0,.756.224.756.924v1.47c0,.7-.266.924-.756.924H18.62V-8.4Zm4.424.854c0-.7.308-.966.8-.966s.8.266.8.966v5.292c0,.7-.308.966-.8.966s-.8-.266-.8-.966Zm-1.54,5.194A2.175,2.175,0,0,0,24.57.112a2.175,2.175,0,0,0,2.338-2.464v-5.1A2.175,2.175,0,0,0,24.57-9.912a2.175,2.175,0,0,0-2.338,2.464Zm5.474-5.1c0,2.8,3.01,3.178,3.01,5.194,0,.7-.308.952-.8.952s-.8-.252-.8-.952v-.7H27.664v.6c0,1.568.784,2.464,2.3,2.464s2.3-.9,2.3-2.464c0-2.8-3.01-3.178-3.01-5.194,0-.7.28-.966.77-.966s.77.266.77.966v.406h1.456v-.308c0-1.568-.77-2.464-2.268-2.464S27.706-9.016,27.706-7.448ZM34.678-8.4h2.66V-9.8h-4.2V0h4.2V-1.4h-2.66V-4.27h2.114v-1.4H34.678ZM38.29,0h2.436c1.54,0,2.3-.854,2.3-2.422V-7.378c0-1.568-.756-2.422-2.3-2.422H38.29ZM40.7-8.4c.49,0,.784.252.784.952v5.1c0,.7-.294.952-.784.952H39.83v-7Zm8.484,4.746v1.4c0,.7-.308.952-.8.952s-.8-.252-.8-.952V-7.546c0-.7.308-.966.8-.966s.8.266.8.966V-6.5h1.456v-.952c0-1.568-.784-2.464-2.3-2.464s-2.3.9-2.3,2.464v5.1c0,1.568.784,2.464,2.3,2.464s2.3-.9,2.3-2.464v-1.3ZM52.99-7.546c0-.7.308-.966.8-.966s.8.266.8.966v5.292c0,.7-.308.966-.8.966s-.8-.266-.8-.966ZM51.45-2.352A2.175,2.175,0,0,0,53.788.112a2.175,2.175,0,0,0,2.338-2.464v-5.1a2.175,2.175,0,0,0-2.338-2.464A2.175,2.175,0,0,0,51.45-7.448ZM60.522-9.8H58.268L56.7,0h1.414l.266-1.778h1.89L60.536,0H62.09Zm-1.2,1.736.742,4.956H58.576ZM62.8,0h4.074V-1.4H64.344V-9.8H62.8ZM.364,7.552c0,2.8,3.01,3.178,3.01,5.194,0,.7-.308.952-.8.952s-.8-.252-.8-.952v-.7H.322v.6c0,1.568.784,2.464,2.3,2.464s2.3-.9,2.3-2.464c0-2.8-3.01-3.178-3.01-5.194,0-.7.28-.966.77-.966s.77.266.77.966V7.86H4.9V7.552c0-1.568-.77-2.464-2.268-2.464S.364,5.984.364,7.552ZM5.348,6.6h1.61V15H8.5V6.6h1.61V5.2H5.348Zm6.846.854c0-.7.308-.966.8-.966s.8.266.8.966v5.292c0,.7-.308.966-.8.966s-.8-.266-.8-.966Zm-1.54,5.194a2.175,2.175,0,0,0,2.338,2.464,2.175,2.175,0,0,0,2.338-2.464v-5.1a2.175,2.175,0,0,0-2.338-2.464,2.175,2.175,0,0,0-2.338,2.464Zm8.68-1.3v1.4c0,.7-.308.952-.8.952s-.8-.252-.8-.952V7.454c0-.7.308-.966.8-.966s.8.266.8.966V8.5H20.79V7.552c0-1.568-.784-2.464-2.3-2.464s-2.3.9-2.3,2.464v5.1c0,1.568.784,2.464,2.3,2.464s2.3-.9,2.3-2.464v-1.3ZM25.242,15h1.582L24.682,9.568,26.824,5.2h-1.54L23.268,9.47V5.2h-1.54V15h1.54V11.99l.476-.9Zm3.724,0h1.54V11.752L32.452,5.2h-1.47L29.806,9.666,28.63,5.2H27.02l1.946,6.552ZM35.8,5.2H33.544L31.976,15H33.39l.266-1.778h1.89L35.812,15h1.554Zm-1.2,1.736.742,4.956H33.852ZM42.868,15a2.886,2.886,0,0,1-.168-1.19V12.3c0-1.022-.252-1.764-1.022-2.086a1.954,1.954,0,0,0,1.008-1.988v-.77C42.686,5.942,42,5.2,40.4,5.2H38.08V15h1.54V11.01h.532c.7,0,1.008.336,1.008,1.246V13.8A3.014,3.014,0,0,0,41.3,15ZM40.362,6.6c.546,0,.784.308.784,1.008v.966c0,.784-.35,1.036-.924,1.036h-.6V6.6ZM43.708,15h2.436c1.54,0,2.3-.854,2.3-2.422V7.622c0-1.568-.756-2.422-2.3-2.422H43.708Zm2.408-8.4c.49,0,.784.252.784.952v5.1c0,.7-.294.952-.784.952h-.868v-7ZM2.814,20.2c-1.54,0-2.156.574-2.156,2.142v5.516C.658,29.426,1.274,30,2.814,30H3.29V28.74H2.912c-.49,0-.714-.182-.714-.882V22.342c0-.7.224-.882.714-.882H3.29V20.2Zm2.8,1.4h2.66V20.2h-4.2V30h4.2V28.6H5.614V25.73H7.728v-1.4H5.614Zm7.028-1.4H10.388L8.82,30h1.414l.266-1.778h1.89L12.656,30H14.21Zm-1.2,1.736.742,4.956H10.7Zm3.29.616c0,2.8,3.01,3.178,3.01,5.194,0,.7-.308.952-.8.952s-.8-.252-.8-.952v-.7H14.686v.6c0,1.568.784,2.464,2.3,2.464s2.3-.9,2.3-2.464c0-2.8-3.01-3.178-3.01-5.194,0-.7.28-.966.77-.966s.77.266.77.966v.406h1.456v-.308c0-1.568-.77-2.464-2.268-2.464S14.728,20.984,14.728,22.552Zm4.984-.952h1.61V30h1.54V21.6h1.61V20.2h-4.76Zm9.87-1.4H27.314V30h1.54V26.318h.728c1.54,0,2.3-.854,2.3-2.422V22.622C31.878,21.054,31.122,20.2,29.582,20.2Zm0,1.4c.49,0,.756.224.756.924v1.47c0,.7-.266.924-.756.924h-.728V21.6Zm3.01,8.4h1.54V20.2h-1.54ZM34.8,21.6h1.61V30h1.54V21.6h1.61V20.2H34.8Zm5.208-1.4v1.26h.378c.49,0,.714.182.714.882v5.516c0,.7-.224.882-.714.882h-.378V30h.476c1.54,0,2.156-.574,2.156-2.142V22.342c0-1.568-.616-2.142-2.156-2.142Z" transform="translate(1323.95 763.2)" fill="#fff"/>
    </g>
    <g transform="matrix(1, 0, 0, 1, 100.55, 139.95)" filter="url(#Path_11768)">
      <path id="Path_11768-2" data-name="Path 11768" d="M3.85,0H5.432V-9.8H4.06v5.866L2.478-9.8H.546V0H1.932V-7.1Zm6.1-9.8H7.7L6.132,0H7.546l.266-1.778H9.7L9.968,0h1.554ZM8.75-8.064l.742,4.956H8.008ZM12.992,0h1.54V-3.248L16.478-9.8h-1.47L13.832-5.334,12.656-9.8h-1.61l1.946,6.552Zm6.832-9.8H17.57L16,0h1.414l.266-1.778h1.89L19.838,0h1.554Zm-1.2,1.736.742,4.956H17.878ZM26.894,0a2.886,2.886,0,0,1-.168-1.19V-2.7c0-1.022-.252-1.764-1.022-2.086a1.954,1.954,0,0,0,1.008-1.988v-.77c0-1.512-.686-2.254-2.282-2.254H22.106V0h1.54V-3.99h.532c.7,0,1.008.336,1.008,1.246V-1.2a3.014,3.014,0,0,0,.14,1.2ZM24.388-8.4c.546,0,.784.308.784,1.008v.966c0,.784-.35,1.036-.924,1.036h-.6V-8.4ZM31.15-9.8H28.9L27.328,0h1.414l.266-1.778H30.9L31.164,0h1.554Zm-1.2,1.736.742,4.956H29.2ZM35.56-9.8H33.418V0h1.344V-6.93L35.91,0h1.456L38.43-7.028V0h1.456V-9.8H37.744l-1.05,6.958Zm7.714,0H41.006V0h1.54V-3.682h.728c1.54,0,2.3-.854,2.3-2.422V-7.378C45.57-8.946,44.814-9.8,43.274-9.8Zm0,1.4c.49,0,.756.224.756.924v1.47c0,.7-.266.924-.756.924h-.728V-8.4Zm2.94-1.4v7.462c0,1.568.784,2.464,2.3,2.464s2.3-.9,2.3-2.464V-9.8H49.35v7.56c0,.7-.308.952-.8.952s-.8-.252-.8-.952V-9.8ZM56.644,0a2.886,2.886,0,0,1-.168-1.19V-2.7c0-1.022-.252-1.764-1.022-2.086a1.954,1.954,0,0,0,1.008-1.988v-.77c0-1.512-.686-2.254-2.282-2.254H51.856V0H53.4V-3.99h.532c.7,0,1.008.336,1.008,1.246V-1.2a3.014,3.014,0,0,0,.14,1.2ZM54.138-8.4c.546,0,.784.308.784,1.008v.966c0,.784-.35,1.036-.924,1.036h-.6V-8.4ZM2.1,10.8H3.85V15H5.418V5.2H3.85V9.4H2.1V5.2H.56V15H2.1ZM9.954,5.2H7.7L6.132,15H7.546l.266-1.778H9.7L9.968,15h1.554ZM8.75,6.936l.742,4.956H8.008ZM14.56,5.2H12.236V15h2.422A2.083,2.083,0,0,0,17,12.676v-.8a1.982,1.982,0,0,0-1.148-2.1A1.925,1.925,0,0,0,16.842,7.8v-.35C16.842,5.942,16.156,5.2,14.56,5.2Zm-.1,5.39c.7,0,.994.28.994,1.19v.854c0,.728-.28.966-.8.966h-.882V10.59Zm.056-3.99c.546,0,.784.308.784,1.008v.546c0,.784-.35,1.036-.924,1.036h-.6V6.6Zm3.4,8.4h1.54V5.2H17.92Zm2.212-8.4h1.61V15h1.54V6.6h1.61V5.2h-4.76Zm8.316-1.4H26.194L24.626,15H26.04l.266-1.778H28.2L28.462,15h1.554Zm-1.2,1.736.742,4.956H26.5ZM29.75,6.6h1.61V15H32.9V6.6h1.61V5.2H29.75Z" transform="translate(999.09 852.55)" fill="#fff"/>
    </g>
    <g transform="matrix(1, 0, 0, 1, 100.55, 139.95)" filter="url(#Path_11769)">
      <path id="Path_11769-2" data-name="Path 11769" d="M.1-7.2h1.38V0H2.8V-7.2h1.38V-8.4H.1ZM7.224-8.4H5.292L3.948,0H5.16l.228-1.524h1.62L7.236,0H8.568ZM6.192-6.912l.636,4.248H5.556ZM9.18,0h3.492V-1.2H10.5V-8.4H9.18Zm7-8.4H14.244L12.9,0h1.212l.228-1.524h1.62L16.188,0H17.52ZM15.144-6.912l.636,4.248H14.508ZM18.132,0h1.32V-8.4h-1.32Zm4.224-8.4H20.412V0h1.32V-3.156h.624c1.32,0,1.968-.732,1.968-2.076V-6.324C24.324-7.668,23.676-8.4,22.356-8.4Zm0,1.2c.42,0,.648.192.648.792v1.26c0,.6-.228.792-.648.792h-.624V-7.2Zm5.352-1.2H25.776L24.432,0h1.212l.228-1.524h1.62L27.72,0h1.332ZM26.676-6.912l.636,4.248H26.04ZM29.664,0h3.492V-1.2H30.984V-8.4h-1.32Zm4.068,0h3.492V-1.2H35.052V-8.4h-1.32ZM37.8,0h1.32V-8.4H37.8Zm5.124-8.4H41.592l1.3,8.4h1.968l1.3-8.4H44.94L43.932-1.548ZM46.764,0h1.32V-8.4h-1.32Zm2.28,0h3.492V-1.2H50.364V-8.4h-1.32Zm4.068,0H56.6V-1.2H54.432V-8.4h-1.32Zm7-8.4H58.176L56.832,0h1.212l.228-1.524h1.62L60.12,0h1.332ZM59.076-6.912l.636,4.248H58.44ZM64.032-3.48h.6v1.548c0,.6-.264.816-.684.816s-.684-.216-.684-.816V-6.468c0-.6.264-.828.684-.828s.684.228.684.828v.9H65.88v-.816c0-1.344-.672-2.112-1.968-2.112s-1.968.768-1.968,2.112v4.368C61.944-.672,62.616.1,63.912.1S65.88-.672,65.88-2.016V-4.68H64.032Zm4.02-3.72h2.28V-8.4h-3.6V0h3.6V-1.2h-2.28V-3.66h1.812v-1.2H68.052Z" transform="translate(1242.95 629.03)" fill="#fff"/>
    </g>
    <g transform="matrix(1, 0, 0, 1, 100.55, 139.95)" filter="url(#Path_11770)">
      <path id="Path_11770-2" data-name="Path 11770" d="M3.492,0H4.848L3.012-4.656,4.848-8.4H3.528L1.8-4.74V-8.4H.48V0H1.8V-2.58l.408-.768ZM5.34-8.4V-2C5.34-.66,6.012.108,7.308.108S9.276-.66,9.276-2V-8.4H8.028v6.48c0,.6-.264.816-.684.816S6.66-1.32,6.66-1.92V-8.4ZM10.176,0h2.088c1.32,0,1.968-.732,1.968-2.076V-6.324c0-1.344-.648-2.076-1.968-2.076H10.176ZM12.24-7.2c.42,0,.672.216.672.816v4.368c0,.6-.252.816-.672.816H11.5v-6Zm2.772-1.2V-2c0,1.344.672,2.112,1.968,2.112S18.948-.66,18.948-2V-8.4H17.7v6.48c0,.6-.264.816-.684.816s-.684-.216-.684-.816V-8.4ZM23.952,0a2.474,2.474,0,0,1-.144-1.02v-1.3c0-.876-.216-1.512-.876-1.788a1.675,1.675,0,0,0,.864-1.7v-.66c0-1.3-.588-1.932-1.956-1.932H19.848V0h1.32V-3.42h.456c.6,0,.864.288.864,1.068v1.32A2.583,2.583,0,0,0,22.608,0ZM21.8-7.2c.468,0,.672.264.672.864v.828c0,.672-.3.888-.792.888h-.516V-7.2Zm6.552-1.2H26.52V0h1.152V-5.94L28.656,0H29.9l.912-6.024V0h1.248V-8.4H30.228l-.9,5.964Zm7.6,0H34.02L32.676,0h1.212l.228-1.524h1.62L35.964,0H37.3ZM34.92-6.912l.636,4.248H34.284ZM39.228-3.6h1.5V0h1.344V-8.4H40.728v3.6h-1.5V-8.4h-1.32V0h1.32Zm3.8,3.6h1.32V-8.4h-1.32Zm2.28,0H48.8V-1.2H46.632V-8.4h-1.32ZM49.38,0h3.492V-1.2H50.7V-8.4H49.38Zm7-8.4H54.444L53.1,0h1.212l.228-1.524h1.62L56.388,0H57.72ZM55.344-6.912l.636,4.248H54.708ZM61.176-8.4H59.844L61.14,0h1.968l1.3-8.4H63.192L62.184-1.548ZM65.016,0h1.32V-8.4h-1.32ZM67.3,0h3.492V-1.2H68.616V-8.4H67.3Zm4.068,0h3.492V-1.2H72.684V-8.4h-1.32Zm7-8.4H76.428L75.084,0H76.3l.228-1.524h1.62L78.372,0H79.7ZM77.328-6.912l.636,4.248H76.692ZM82.284-3.48h.6v1.548c0,.6-.264.816-.684.816s-.684-.216-.684-.816V-6.468c0-.6.264-.828.684-.828s.684.228.684.828v.9h1.248v-.816c0-1.344-.672-2.112-1.968-2.112S80.2-7.728,80.2-6.384v4.368C80.2-.672,80.868.1,82.164.1s1.968-.768,1.968-2.112V-4.68H82.284ZM86.3-7.2h2.28V-8.4h-3.6V0h3.6V-1.2H86.3V-3.66h1.812v-1.2H86.3Z" transform="translate(1263.44 475.8)" fill="#fff"/>
    </g>
    <g transform="matrix(1, 0, 0, 1, 100.55, 139.95)" filter="url(#Path_11771)">
      <path id="Path_11771-2" data-name="Path 11771" d="M3.232-11.2H.64V0H2.4V-4.208h.832c1.76,0,2.624-.976,2.624-2.768V-8.432C5.856-10.224,4.992-11.2,3.232-11.2Zm0,1.6c.56,0,.864.256.864,1.056v1.68c0,.8-.3,1.056-.864,1.056H2.4V-9.6ZM12.224,0a3.3,3.3,0,0,1-.192-1.36V-3.088c0-1.168-.288-2.016-1.168-2.384a2.233,2.233,0,0,0,1.152-2.272v-.88c0-1.728-.784-2.576-2.608-2.576H6.752V0h1.76V-4.56H9.12c.8,0,1.152.384,1.152,1.424v1.76A3.444,3.444,0,0,0,10.432,0ZM9.36-9.6c.624,0,.9.352.9,1.152v1.1c0,.9-.4,1.184-1.056,1.184H8.512V-9.6Zm5.584,0h3.04v-1.6h-4.8V0h4.8V-1.6h-3.04V-4.88H17.36v-1.6H14.944Zm3.9,1.088c0,3.2,3.44,3.632,3.44,5.936,0,.8-.352,1.088-.912,1.088s-.912-.288-.912-1.088v-.8H18.8v.688C18.8-.9,19.7.128,21.424.128S24.048-.9,24.048-2.688c0-3.2-3.44-3.632-3.44-5.936,0-.8.32-1.1.88-1.1s.88.3.88,1.1v.464h1.664v-.352c0-1.792-.88-2.816-2.592-2.816S18.848-10.3,18.848-8.512ZM26.816-9.6h3.04v-1.6h-4.8V0h4.8V-1.6h-3.04V-4.88h2.416v-1.6H26.816ZM34.7,0h1.808V-11.2H34.944v6.7l-1.808-6.7H30.928V0h1.584V-8.112Zm2.56-9.6H39.1V0h1.76V-9.6H42.7v-1.6h-5.44ZM50.5,0h2.336L54.08-11.2H52.544l-.912,8.9-.88-8.9h-1.7l-.848,8.832L47.264-11.2H45.552L46.8,0h2.416l.64-5.968Zm6.08-8.624c0-.8.352-1.1.912-1.1s.912.3.912,1.1v6.048c0,.8-.352,1.1-.912,1.1s-.912-.3-.912-1.1Zm-1.76,5.936A2.486,2.486,0,0,0,57.488.128,2.486,2.486,0,0,0,60.16-2.688V-8.512a2.486,2.486,0,0,0-2.672-2.816,2.486,2.486,0,0,0-2.672,2.816ZM66.768,0a3.3,3.3,0,0,1-.192-1.36V-3.088c0-1.168-.288-2.016-1.168-2.384A2.233,2.233,0,0,0,66.56-7.744v-.88c0-1.728-.784-2.576-2.608-2.576H61.3V0h1.76V-4.56h.608c.8,0,1.152.384,1.152,1.424v1.76A3.444,3.444,0,0,0,64.976,0ZM63.9-9.6c.624,0,.9.352.9,1.152v1.1c0,.9-.4,1.184-1.056,1.184h-.688V-9.6ZM71.744,0h1.808L71.1-6.208,73.552-11.2h-1.76l-2.3,4.88V-11.2h-1.76V0h1.76V-3.44l.544-1.024Zm2.608,0h1.76V-11.2h-1.76Zm6.8,0H82.96V-11.2H81.392v6.7l-1.808-6.7H77.376V0H78.96V-8.112Zm5.712-4.64h.8v2.064c0,.8-.352,1.088-.912,1.088s-.912-.288-.912-1.088V-8.624c0-.8.352-1.1.912-1.1s.912.3.912,1.1v1.2h1.664V-8.512c0-1.792-.9-2.816-2.624-2.816S84.08-10.3,84.08-8.512v5.824c0,1.792.9,2.816,2.624,2.816S89.328-.9,89.328-2.688V-6.24H86.864Z" transform="translate(759.95 712.75)" fill="#fff"/>
    </g>
    <g transform="matrix(1, 0, 0, 1, 100.55, 139.95)" filter="url(#Path_11772)">
      <path id="Path_11772-2" data-name="Path 11772" d="M.16-12h2.3V0h2.2V-12h2.3v-2H.16Zm9.78,1.22c0-1,.44-1.38,1.14-1.38s1.14.38,1.14,1.38v7.56c0,1-.44,1.38-1.14,1.38S9.94-2.22,9.94-3.22ZM7.74-3.36C7.74-1.12,8.92.16,11.08.16s3.34-1.28,3.34-3.52v-7.28c0-2.24-1.18-3.52-3.34-3.52s-3.34,1.28-3.34,3.52ZM19.08-14H15.84V0h2.2V-5.26h1.04c2.2,0,3.28-1.22,3.28-3.46v-1.82C22.36-12.78,21.28-14,19.08-14Zm0,2c.7,0,1.08.32,1.08,1.32v2.1c0,1-.38,1.32-1.08,1.32H18.04V-12Zm7.12,1.36c0,4,4.3,4.54,4.3,7.42,0,1-.44,1.36-1.14,1.36s-1.14-.36-1.14-1.36v-1H26.14v.86c0,2.24,1.12,3.52,3.28,3.52S32.7-1.12,32.7-3.36c0-4-4.3-4.54-4.3-7.42,0-1,.4-1.38,1.1-1.38s1.1.38,1.1,1.38v.58h2.08v-.44c0-2.24-1.1-3.52-3.24-3.52S26.2-12.88,26.2-10.64Zm9.78-.14c0-1,.44-1.38,1.14-1.38s1.14.38,1.14,1.38v7.56c0,1-.44,1.38-1.14,1.38s-1.14-.38-1.14-1.38Zm-2.2,7.42c0,2.24,1.18,3.52,3.34,3.52s3.34-1.28,3.34-3.52v-7.28c0-2.24-1.18-3.52-3.34-3.52s-3.34,1.28-3.34,3.52ZM41.88,0h2.2V-14h-2.2Zm3.8,0H51.5V-2H47.88V-14h-2.2Zm9.88,0h3.48c2.2,0,3.28-1.22,3.28-3.46v-7.08c0-2.24-1.08-3.46-3.28-3.46H55.56ZM59-12c.7,0,1.12.36,1.12,1.36v7.28C60.12-2.36,59.7-2,59-2H57.76V-12Zm4.62-2V-3.34C63.62-1.1,64.74.18,66.9.18s3.28-1.28,3.28-3.52V-14H68.1V-3.2c0,1-.44,1.36-1.14,1.36S65.82-2.2,65.82-3.2V-14Zm11.1,0H71.66V0h1.92V-9.9L75.22,0H77.3l1.52-10.04V0H80.9V-14H77.84l-1.5,9.94Zm11.02,0H82.5V0h2.2V-5.26h1.04c2.2,0,3.28-1.22,3.28-3.46v-1.82C89.02-12.78,87.94-14,85.74-14Zm0,2c.7,0,1.08.32,1.08,1.32v2.1c0,1-.38,1.32-1.08,1.32H84.7V-12Zm10.62-2c-2.2,0-3.08.82-3.08,3.06v7.88c0,2.24.88,3.06,3.08,3.06h.68V-1.8H96.5c-.7,0-1.02-.26-1.02-1.26v-7.88c0-1,.32-1.26,1.02-1.26h.54V-14Zm4,2h3.8v-2h-6V0h6V-2h-3.8V-6.1h3.02v-2h-3.02Zm5.16,9.88V0h2.12V-2.12ZM112.48-14h-3.24V0h2.2V-5.26h1.04c2.2,0,3.28-1.22,3.28-3.46v-1.82C115.76-12.78,114.68-14,112.48-14Zm0,2c.7,0,1.08.32,1.08,1.32v2.1c0,1-.38,1.32-1.08,1.32h-1.04V-12Zm2.8,9.88V0h2.12V-2.12ZM118.52-14v1.8h.54c.7,0,1.02.26,1.02,1.26v7.88c0,1-.32,1.26-1.02,1.26h-.54V0h.68c2.2,0,3.08-.82,3.08-3.06v-7.88c0-2.24-.88-3.06-3.08-3.06Z" transform="translate(928.65 661.91)" fill="#fff"/>
    </g>
    <g transform="matrix(1, 0, 0, 1, 100.55, 139.95)" filter="url(#Path_11773)">
      <path id="Path_11773-2" data-name="Path 11773" d="M.468-9.576c0,3.6,3.87,4.086,3.87,6.678,0,.9-.4,1.224-1.026,1.224S2.286-2,2.286-2.9v-.9H.414v.774C.414-1.008,1.422.144,3.366.144S6.318-1.008,6.318-3.024c0-3.6-3.87-4.086-3.87-6.678,0-.9.36-1.242.99-1.242s.99.342.99,1.242v.522H6.3v-.4c0-2.016-.99-3.168-2.916-3.168S.468-11.592.468-9.576ZM7.452,0h1.98V-12.6H7.452Zm3.42,0H16.11V-1.8H12.852V-12.6h-1.98Zm7.92-9.7c0-.9.4-1.242,1.026-1.242s1.026.342,1.026,1.242v6.8c0,.9-.4,1.242-1.026,1.242S18.792-2,18.792-2.9Zm-1.98,6.678c0,2.016,1.062,3.168,3.006,3.168s3.006-1.152,3.006-3.168V-9.576c0-2.016-1.062-3.168-3.006-3.168s-3.006,1.152-3.006,3.168ZM23.85-9.576c0,3.6,3.87,4.086,3.87,6.678,0,.9-.4,1.224-1.026,1.224S25.668-2,25.668-2.9v-.9H23.8v.774C23.8-1.008,24.8.144,26.748.144S29.7-1.008,29.7-3.024c0-3.6-3.87-4.086-3.87-6.678,0-.9.36-1.242.99-1.242s.99.342.99,1.242v.522h1.872v-.4c0-2.016-.99-3.168-2.916-3.168S23.85-11.592,23.85-9.576Z" transform="translate(223.65 907.57)" fill="#fff"/>
    </g>
    <g transform="matrix(1, 0, 0, 1, 100.55, 139.95)" filter="url(#Path_11774)">
      <path id="Path_11774-2" data-name="Path 11774" d="M2.688-9.8H.546V0H1.89V-6.93L3.038,0H4.494L5.558-7.028V0H7.014V-9.8H4.872L3.822-2.842Zm7.756,5.74h.7v1.806c0,.7-.308.952-.8.952s-.8-.252-.8-.952V-7.546c0-.7.308-.966.8-.966s.8.266.8.966V-6.5H12.6v-.952c0-1.568-.784-2.464-2.3-2.464s-2.3.9-2.3,2.464v5.1c0,1.568.784,2.464,2.3,2.464s2.3-.9,2.3-2.464V-5.46H10.444ZM18.382,0a2.886,2.886,0,0,1-.168-1.19V-2.7c0-1.022-.252-1.764-1.022-2.086A1.954,1.954,0,0,0,18.2-6.776v-.77c0-1.512-.686-2.254-2.282-2.254H13.594V0h1.54V-3.99h.532c.7,0,1.008.336,1.008,1.246V-1.2a3.014,3.014,0,0,0,.14,1.2ZM15.876-8.4c.546,0,.784.308.784,1.008v.966c0,.784-.35,1.036-.924,1.036h-.6V-8.4Zm7.84-1.4H21.392V0h2.422a2.083,2.083,0,0,0,2.338-2.324v-.8A1.982,1.982,0,0,0,25-5.222,1.925,1.925,0,0,0,26-7.2v-.35C26-9.058,25.312-9.8,23.716-9.8Zm-.1,5.39c.7,0,.994.28.994,1.19v.854c0,.728-.28.966-.8.966h-.882V-4.41Zm.056-3.99c.546,0,.784.308.784,1.008v.546c0,.784-.35,1.036-.924,1.036h-.6V-8.4Zm3.332-1.4v7.462c0,1.568.784,2.464,2.3,2.464s2.3-.9,2.3-2.464V-9.8H30.142v7.56c0,.7-.308.952-.8.952s-.8-.252-.8-.952V-9.8ZM32.648,0h4.074V-1.4H34.188V-9.8h-1.54Zm7.07-9.8H37.394V0h2.422a2.083,2.083,0,0,0,2.338-2.324v-.8a1.982,1.982,0,0,0-1.148-2.1A1.925,1.925,0,0,0,42-7.2v-.35C42-9.058,41.314-9.8,39.718-9.8Zm-.1,5.39c.7,0,.994.28.994,1.19v.854c0,.728-.28.966-.8.966h-.882V-4.41Zm.056-3.99c.546,0,.784.308.784,1.008v.546c0,.784-.35,1.036-.924,1.036h-.6V-8.4Z" transform="translate(272.65 814.23)" fill="#fff"/>
    </g>
    <g transform="matrix(1, 0, 0, 1, 100.55, 139.95)" filter="url(#Path_11775)">
      <path id="Path_11775-2" data-name="Path 11775" d="M5.348,0A2.886,2.886,0,0,1,5.18-1.19V-2.7c0-1.022-.252-1.764-1.022-2.086A1.954,1.954,0,0,0,5.166-6.776v-.77C5.166-9.058,4.48-9.8,2.884-9.8H.56V0H2.1V-3.99h.532c.7,0,1.008.336,1.008,1.246V-1.2A3.014,3.014,0,0,0,3.78,0ZM2.842-8.4c.546,0,.784.308.784,1.008v.966c0,.784-.35,1.036-.924,1.036H2.1V-8.4ZM9.6-9.8H7.35L5.782,0H7.2l.266-1.778h1.89L9.618,0h1.554ZM8.4-8.064l.742,4.956H7.658ZM11.886,0h1.54V-9.8h-1.54ZM18.06,0h1.582L17.5-5.432,19.642-9.8H18.1L16.086-5.53V-9.8h-1.54V0h1.54V-3.01l.476-.9Zm3.822-8.4h2.66V-9.8h-4.2V0h4.2V-1.4h-2.66V-4.27H24v-1.4H21.882Zm8.4,8.4a2.886,2.886,0,0,1-.168-1.19V-2.7c0-1.022-.252-1.764-1.022-2.086A1.954,1.954,0,0,0,30.1-6.776v-.77c0-1.512-.686-2.254-2.282-2.254H25.494V0h1.54V-3.99h.532c.7,0,1.008.336,1.008,1.246V-1.2a3.014,3.014,0,0,0,.14,1.2ZM27.776-8.4c.546,0,.784.308.784,1.008v.966c0,.784-.35,1.036-.924,1.036h-.6V-8.4Zm6.762-1.4H32.284L30.716,0H32.13L32.4-1.778h1.89L34.552,0h1.554Zm-1.2,1.736.742,4.956H32.592Zm6.8-1.736H38.584L40.1,0h2.3L43.9-9.8H42.49L41.314-1.806ZM44.618,0h1.54V-9.8h-1.54Zm2.66,0h4.074V-1.4H48.818V-9.8h-1.54Zm4.746,0H56.1V-1.4H53.564V-9.8h-1.54Zm8.162-9.8H57.932L56.364,0h1.414l.266-1.778h1.89L60.2,0h1.554Zm-1.2,1.736.742,4.956H58.24Zm5.782,4h.7v1.806c0,.7-.308.952-.8.952s-.8-.252-.8-.952V-7.546c0-.7.308-.966.8-.966s.8.266.8.966V-6.5H66.92v-.952c0-1.568-.784-2.464-2.3-2.464s-2.3.9-2.3,2.464v5.1c0,1.568.784,2.464,2.3,2.464s2.3-.9,2.3-2.464V-5.46H64.764Zm4.69-4.34h2.66V-9.8h-4.2V0h4.2V-1.4h-2.66V-4.27h2.114v-1.4H69.454Z" transform="translate(430.98 991.85)" fill="#fff"/>
    </g>
    <path id="Path_9574" data-name="Path 9574" d="M2213.61,2232.691l-2,31.728h19.753l4.5-31.728Z" transform="translate(-1634 -1193)" fill="none" stroke="#fff" stroke-width="1"/>
    <path id="Path_9575" data-name="Path 9575" d="M2222.835,2249.2H2212.72l-.782,10.177h10.9Z" transform="translate(-1634 -1193)" fill="none" stroke="#fff" stroke-width="1"/>
    <g transform="matrix(1, 0, 0, 1, 100.55, 139.95)" filter="url(#Path_11776)">
      <path id="Path_11776-2" data-name="Path 11776" d="M.48,0H3.972V-1.2H1.8V-8.4H.48ZM5.76-6.468c0-.6.264-.828.684-.828s.684.228.684.828v4.536c0,.6-.264.828-.684.828s-.684-.228-.684-.828ZM4.44-2.016A1.864,1.864,0,0,0,6.444.1a1.864,1.864,0,0,0,2-2.112V-6.384a1.864,1.864,0,0,0-2-2.112,1.864,1.864,0,0,0-2,2.112Zm7.44-1.116v1.2c0,.6-.264.816-.684.816s-.684-.216-.684-.816V-6.468c0-.6.264-.828.684-.828s.684.228.684.828v.9h1.248v-.816c0-1.344-.672-2.112-1.968-2.112s-1.968.768-1.968,2.112v4.368C9.192-.672,9.864.1,11.16.1s1.968-.768,1.968-2.112V-3.132ZM16.86-8.4H14.928L13.584,0H14.8l.228-1.524h1.62L16.872,0H18.2ZM15.828-6.912l.636,4.248H15.192ZM17.976-7.2h1.38V0h1.32V-7.2h1.38V-8.4h-4.08ZM22.632,0h1.32V-8.4h-1.32Zm3.492-6.468c0-.6.264-.828.684-.828s.684.228.684.828v4.536c0,.6-.264.828-.684.828s-.684-.228-.684-.828ZM24.8-2.016a1.864,1.864,0,0,0,2,2.112,1.864,1.864,0,0,0,2-2.112V-6.384a1.864,1.864,0,0,0-2-2.112,1.864,1.864,0,0,0-2,2.112ZM32.484,0H33.84V-8.4H32.664v5.028L31.308-8.4H29.652V0H30.84V-6.084ZM37.86-6.468c0-.6.264-.828.684-.828s.684.228.684.828v4.536c0,.6-.264.828-.684.828s-.684-.228-.684-.828ZM36.54-2.016a1.864,1.864,0,0,0,2,2.112,1.864,1.864,0,0,0,2-2.112V-6.384a1.864,1.864,0,0,0-2-2.112,1.864,1.864,0,0,0-2,2.112ZM42.72-7.2h2.172V-8.4H41.4V0h1.32V-3.468h1.7v-1.2h-1.7ZM3.408,3.6H1.476L.132,12H1.344l.228-1.524h1.62L3.42,12H4.752ZM2.376,5.088l.636,4.248H1.74ZM5.364,12H7.452c1.32,0,1.968-.732,1.968-2.076V5.676C9.42,4.332,8.772,3.6,7.452,3.6H5.364ZM7.428,4.8c.42,0,.672.216.672.816V9.984c0,.6-.252.816-.672.816H6.684v-6Zm4.656-1.2H10.248V12H11.4V6.06L12.384,12h1.248l.912-6.024V12h1.248V3.6H13.956l-.9,5.964ZM16.752,12h1.32V3.6h-1.32Zm5.1,0h1.356V3.6H22.032V8.628L20.676,3.6H19.02V12h1.188V5.916Zm5.376-6.468c0-.6.264-.828.684-.828s.684.228.684.828v4.536c0,.6-.264.828-.684.828s-.684-.228-.684-.828Zm-1.32,4.452a1.864,1.864,0,0,0,2,2.112,1.864,1.864,0,0,0,2-2.112V5.616a1.864,1.864,0,0,0-2-2.112,1.864,1.864,0,0,0-2,2.112ZM32.088,4.8H34.26V3.6H30.768V12h1.32V8.532h1.7v-1.2h-1.7Zm4.128,0h2.172V3.6H34.9V12h1.32V8.532h1.7v-1.2h-1.7ZM39.024,12h1.32V3.6h-1.32Zm4.86-3.132v1.2c0,.6-.264.816-.684.816s-.684-.216-.684-.816V5.532c0-.6.264-.828.684-.828s.684.228.684.828v.9h1.248V5.616c0-1.344-.672-2.112-1.968-2.112S41.2,4.272,41.2,5.616V9.984c0,1.344.672,2.112,1.968,2.112s1.968-.768,1.968-2.112V8.868ZM47.256,4.8h2.28V3.6h-3.6V12h3.6V10.8h-2.28V8.34h1.812V7.14H47.256Z" transform="translate(499.11 883.21)" fill="#fff"/>
    </g>
    <g transform="matrix(1, 0, 0, 1, 100.55, 139.95)" filter="url(#Path_11777)">
      <path id="Path_11777-2" data-name="Path 11777" d="M.4-8.4v1.2H2.784L.276-1.176V0H4.14V-1.2H1.632L4.14-7.224V-8.4ZM6.132-6.468c0-.6.264-.828.684-.828s.684.228.684.828v4.536c0,.6-.264.828-.684.828s-.684-.228-.684-.828ZM4.812-2.016A1.864,1.864,0,0,0,6.816.1a1.864,1.864,0,0,0,2-2.112V-6.384a1.864,1.864,0,0,0-2-2.112,1.864,1.864,0,0,0-2,2.112ZM12.492,0h1.356V-8.4H12.672v5.028L11.316-8.4H9.66V0h1.188V-6.084Zm3.624-7.2H18.4V-8.4H14.8V0h3.6V-1.2h-2.28V-3.66h1.812v-1.2H16.116Zm5.772.792h1.02V0h1.32V-8.4H23.34a1.308,1.308,0,0,1-1.452,1.056ZM25.74-2.016a1.864,1.864,0,0,0,2,2.112,1.864,1.864,0,0,0,2-2.112V-3.552c0-1.236-.492-1.92-1.464-1.92a1.256,1.256,0,0,0-1.224.744V-6.264c0-.8.264-1.032.732-1.032.42,0,.684.228.684.828v.3h1.248v-.216c0-1.344-.672-2.112-1.968-2.112-1.368,0-2.016.768-2.016,2.184Zm2-2.256c.42,0,.684.228.684.828v1.512c0,.6-.264.816-.684.816s-.684-.216-.684-.816V-3.444C27.06-4.044,27.324-4.272,27.744-4.272ZM35.844,0H37.6l.936-8.4H37.38L36.7-1.728,36.036-8.4H34.764l-.636,6.624L33.42-8.4H32.136L33.072,0h1.812l.48-4.476Zm4.668-3.6h1.5V0h1.344V-8.4H42.012v3.6h-1.5V-8.4h-1.32V0h1.32Zm6.732-4.8H45.312L43.968,0H45.18l.228-1.524h1.62L47.256,0h1.332ZM46.212-6.912l.636,4.248H45.576ZM53.3,0a2.474,2.474,0,0,1-.144-1.02v-1.3c0-.876-.216-1.512-.876-1.788a1.675,1.675,0,0,0,.864-1.7v-.66c0-1.3-.588-1.932-1.956-1.932H49.2V0h1.32V-3.42h.456c.6,0,.864.288.864,1.068v1.32A2.583,2.583,0,0,0,51.96,0ZM51.156-7.2c.468,0,.672.264.672.864v.828c0,.672-.3.888-.792.888H50.52V-7.2Zm4.188,0h2.172V-8.4H54.024V0h1.32V-3.468h1.7v-1.2h-1.7ZM61.56,0h1.752l.936-8.4H63.1l-.684,6.672L61.752-8.4H60.48l-.636,6.624L59.136-8.4H57.852L58.788,0H60.6l.48-4.476Zm6.1-8.4H65.724L64.38,0h1.212l.228-1.524h1.62L67.668,0H69ZM66.624-6.912l.636,4.248H65.988ZM69.612,0H73.1V-1.2H70.932V-8.4h-1.32ZM73.68,0h3.492V-1.2H75V-8.4H73.68Z" transform="matrix(0.69, 0.72, -0.72, 0.69, 365.04, 819.66)" fill="#fff"/>
    </g>
    <g transform="matrix(1, 0, 0, 1, 100.55, 139.95)" filter="url(#Path_11778)">
      <path id="Path_11778-2" data-name="Path 11778" d="M3.06-3.132v1.2c0,.6-.264.816-.684.816s-.684-.216-.684-.816V-6.468c0-.6.264-.828.684-.828s.684.228.684.828v.9H4.308v-.816C4.308-7.728,3.636-8.5,2.34-8.5S.372-7.728.372-6.384v4.368C.372-.672,1.044.1,2.34.1S4.308-.672,4.308-2.016V-3.132ZM6.324-6.468c0-.6.264-.828.684-.828s.684.228.684.828v4.536c0,.6-.264.828-.684.828s-.684-.228-.684-.828ZM5-2.016A1.864,1.864,0,0,0,7.008.1a1.864,1.864,0,0,0,2-2.112V-6.384a1.864,1.864,0,0,0-2-2.112A1.864,1.864,0,0,0,5-6.384ZM11.688-8.4H9.852V0H11V-5.94L11.988,0h1.248l.912-6.024V0H15.4V-8.4H13.56l-.9,5.964Zm6.612,0H16.356V0h1.32V-3.156H18.3c1.32,0,1.968-.732,1.968-2.076V-6.324C20.268-7.668,19.62-8.4,18.3-8.4Zm0,1.2c.42,0,.648.192.648.792v1.26c0,.6-.228.792-.648.792h-.624V-7.2Zm3.792.732c0-.6.264-.828.684-.828s.684.228.684.828v4.536c0,.6-.264.828-.684.828s-.684-.228-.684-.828Zm-1.32,4.452a1.864,1.864,0,0,0,2,2.112,1.864,1.864,0,0,0,2-2.112V-6.384a1.864,1.864,0,0,0-2-2.112,1.864,1.864,0,0,0-2,2.112Zm4.8-6.384V-2c0,1.344.672,2.112,1.968,2.112S29.508-.66,29.508-2V-8.4H28.26v6.48c0,.6-.264.816-.684.816s-.684-.216-.684-.816V-8.4ZM33.228,0h1.356V-8.4H33.408v5.028L32.052-8.4H30.4V0h1.188V-6.084Zm2.3,0H37.62c1.32,0,1.968-.732,1.968-2.076V-6.324c0-1.344-.648-2.076-1.968-2.076H35.532ZM37.6-7.2c.42,0,.672.216.672.816v4.368c0,.6-.252.816-.672.816h-.744v-6ZM3.888,12H5.64l.936-8.4H5.424L4.74,10.272,4.08,3.6H2.808l-.636,6.624L1.464,3.6H.18L1.116,12H2.928l.48-4.476Zm6.1-8.4H8.052L6.708,12H7.92l.228-1.524h1.62L10,12h1.332ZM8.952,5.088l.636,4.248H8.316ZM11.94,12h3.492V10.8H13.26V3.6H11.94Zm4.068,0H19.5V10.8H17.328V3.6h-1.32Z" transform="translate(499.52 922.84)" fill="#fff"/>
    </g>
    <path id="Path_9576" data-name="Path 9576" d="M2232.938,2226.514l-12.5,18.164" transform="translate(-1634 -1193)" fill="none" stroke="#fff" stroke-width="1"/>
    <g id="Path_11779" data-name="Path 11779" transform="matrix(-0.848, -0.53, 0.53, -0.848, 585.792, 1056.68)" fill="#63687a">
      <path d="M 3.26147985458374 4.5 L 0.7385199069976807 4.5 L 1.99999988079071 1.346300005912781 L 3.26147985458374 4.5 Z" stroke="none"/>
      <path d="M 1.99999988079071 2.692589998245239 L 1.477035999298096 4 L 2.522964000701904 4 L 1.99999988079071 2.692589998245239 M 1.99999988079071 0 L 4 5 L -2.384185791015625e-07 5 L 1.99999988079071 0 Z" stroke="none" fill="#fff"/>
    </g>
    <path id="Path_9577" data-name="Path 9577" d="M2182.343,2141.674l-1.465,6.556h7.447v-6.556Z" transform="translate(-1634 -1193)" fill="none" stroke="#707070" stroke-width="1"/>
    <path id="Path_9578" data-name="Path 9578" d="M2186.294,2127.188l-1.411,4.617,14.058,2.674.433-4.124Z" transform="translate(-1634 -1193)" fill="none" stroke="#707070" stroke-width="1"/>
    <path id="Path_9579" data-name="Path 9579" d="M1847.958,2137.684l24.876-1.5,12.031-8.571h1.54l42.455-34.813a102.519,102.519,0,0,1,28.393-11.815c15.931-3.8,35.329-3.376,35.329-3.376a125.672,125.672,0,0,1,19.9,3.376,138.075,138.075,0,0,1,19.525,7.08l50.832,13.7,39.9,7.08,21.4,4.362,30.116,1.667,28.984-1.667v-4.362l-33.085,2.44-27.017-1.535-26.432-5.623-48.31-9.224-24.9-6.839a219.986,219.986,0,0,0-25.78-9.055,176.334,176.334,0,0,0-25.133-4.651,161.227,161.227,0,0,0-29.5,1.673,141.654,141.654,0,0,0-27.31,7.842s.139-.959-12.384,8.927-37.709,30.616-37.709,30.616l-12.842,8.089-24.876,5.835Z" transform="translate(-1634 -1193)" fill="none" stroke="#fff" stroke-width="2"/>
    <path id="Path_9499" data-name="Path 9499" d="M6330.751,5377.468v41.182h38.914v-42.181Z" transform="translate(-4814 -4493)" fill="#fff" opacity="0.4"/>
    <path id="Path_9573" data-name="Path 9573" d="M2202.026,2284.445l6.922-23.214v-25.649l8.084-54.347-16.714-48.743,4.309-27.187,9.785-27.649,2.441-15.671-.768-12.32,6.043-10.77,9.191-12.876,7.548-7.978,16.038-6.354,56.353-69.146,34.309-30.37,51.653-37.361,28.445-1.653,35.09-1.761,36.2-.9,12.027-4.292h20.641l14.445,3.687h72.292" transform="translate(-1634 -1193)" fill="none" stroke="#fff" stroke-width="3" opacity="0.4"/>
    <path id="Path_9479" data-name="Path 9479" d="M4992.186,5124.841v62.141l55.061,3.136v-64.631Z" transform="translate(-4444 -4493)" fill="#fff" opacity="0.4"/>
    <g transform="matrix(1, 0, 0, 1, 100.55, 139.95)" filter="url(#Path_11780)">
      <path id="Path_11780-2" data-name="Path 11780" d="M-34.36-4.176v1.6c0,.8-.352,1.088-.912,1.088s-.912-.288-.912-1.088V-8.624c0-.8.352-1.1.912-1.1s.912.3.912,1.1v1.2H-32.7V-8.512c0-1.792-.9-2.816-2.624-2.816s-2.624,1.024-2.624,2.816v5.824c0,1.792.9,2.816,2.624,2.816S-32.7-.9-32.7-2.688V-4.176Zm4.352-4.448c0-.8.352-1.1.912-1.1s.912.3.912,1.1v6.048c0,.8-.352,1.1-.912,1.1s-.912-.3-.912-1.1Zm-1.76,5.936A2.486,2.486,0,0,0-29.1.128a2.486,2.486,0,0,0,2.672-2.816V-8.512A2.486,2.486,0,0,0-29.1-11.328a2.486,2.486,0,0,0-2.672,2.816ZM-21.4-11.2h-2.576L-25.768,0h1.616l.3-2.032h2.16l.3,2.032h1.776Zm-1.376,1.984.848,5.664h-1.7ZM-18.792,0h4.656V-1.6h-2.9v-9.6h-1.76ZM-5.416,0a3.3,3.3,0,0,1-.192-1.36V-3.088c0-1.168-.288-2.016-1.168-2.384A2.233,2.233,0,0,0-5.624-7.744v-.88c0-1.728-.784-2.576-2.608-2.576h-2.656V0h1.76V-4.56h.608c.8,0,1.152.384,1.152,1.424v1.76A3.444,3.444,0,0,0-7.208,0ZM-8.28-9.6c.624,0,.9.352.9,1.152v1.1c0,.9-.4,1.184-1.056,1.184h-.688V-9.6Zm5.584,0H.344v-1.6h-4.8V0h4.8V-1.6H-2.7V-4.88H-.28v-1.6H-2.7ZM4.872-4.176v1.6c0,.8-.352,1.088-.912,1.088s-.912-.288-.912-1.088V-8.624c0-.8.352-1.1.912-1.1s.912.3.912,1.1v1.2H6.536V-8.512c0-1.792-.9-2.816-2.624-2.816S1.288-10.3,1.288-8.512v5.824c0,1.792.9,2.816,2.624,2.816S6.536-.9,6.536-2.688V-4.176ZM9.368-9.6h3.04v-1.6h-4.8V0h4.8V-1.6H9.368V-4.88h2.416v-1.6H9.368ZM13.5,0h1.76V-11.2H13.5Zm4.352-11.2H16.072L17.8,0h2.624l1.728-11.2H20.536L19.192-2.064ZM22.968,0h1.76V-11.2h-1.76Zm6.8,0h1.808V-11.2H30.008v6.7L28.2-11.2H25.992V0h1.584V-8.112ZM35.48-4.64h.8v2.064c0,.8-.352,1.088-.912,1.088s-.912-.288-.912-1.088V-8.624c0-.8.352-1.1.912-1.1s.912.3.912,1.1v1.2h1.664V-8.512c0-1.792-.9-2.816-2.624-2.816S32.7-10.3,32.7-8.512v5.824c0,1.792.9,2.816,2.624,2.816S37.944-.9,37.944-2.688V-6.24H35.48ZM-27.632,13.2h2V18h1.792V6.8h-1.792v4.8h-2V6.8h-1.76V18h1.76Zm6.688-3.824c0-.8.352-1.1.912-1.1s.912.3.912,1.1v6.048c0,.8-.352,1.1-.912,1.1s-.912-.3-.912-1.1Zm-1.76,5.936a2.486,2.486,0,0,0,2.672,2.816,2.486,2.486,0,0,0,2.672-2.816V9.488a2.486,2.486,0,0,0-2.672-2.816A2.486,2.486,0,0,0-22.7,9.488ZM-13.632,6.8h-2.592V18h1.76V13.792h.832c1.76,0,2.624-.976,2.624-2.768V9.568C-11.008,7.776-11.872,6.8-13.632,6.8Zm0,1.6c.56,0,.864.256.864,1.056v1.68c0,.8-.3,1.056-.864,1.056h-.832V8.4ZM-7.6,6.8h-2.592V18h1.76V13.792H-7.6c1.76,0,2.624-.976,2.624-2.768V9.568C-4.976,7.776-5.84,6.8-7.6,6.8Zm0,1.6c.56,0,.864.256.864,1.056v1.68c0,.8-.3,1.056-.864,1.056h-.832V8.4Zm5.2,0H.64V6.8h-4.8V18H.64V16.4H-2.4V13.12H.016v-1.6H-2.4ZM7.2,18a3.3,3.3,0,0,1-.192-1.36V14.912c0-1.168-.288-2.016-1.168-2.384a2.233,2.233,0,0,0,1.152-2.272v-.88c0-1.728-.784-2.576-2.608-2.576H1.728V18h1.76V13.44H4.1c.8,0,1.152.384,1.152,1.424v1.76A3.444,3.444,0,0,0,5.408,18ZM4.336,8.4c.624,0,.9.352.9,1.152v1.1c0,.9-.4,1.184-1.056,1.184H3.488V8.4Zm8.88-1.6c-1.76,0-2.464.656-2.464,2.448v6.3c0,1.792.7,2.448,2.464,2.448h.544V16.56h-.432c-.56,0-.816-.208-.816-1.008v-6.3c0-.8.256-1.008.816-1.008h.432V6.8Zm3.2,1.6h3.04V6.8h-4.8V18h4.8V16.4h-3.04V13.12h2.416v-1.6H16.416Zm6.72-1.6H20.544V18H22.3V13.792h.832c1.76,0,2.624-.976,2.624-2.768V9.568C25.76,7.776,24.9,6.8,23.136,6.8Zm0,1.6c.56,0,.864.256.864,1.056v1.68c0,.8-.3,1.056-.864,1.056H22.3V8.4Zm3.136-1.6V8.24H26.7c.56,0,.816.208.816,1.008v6.3c0,.8-.256,1.008-.816,1.008h-.432V18h.544c1.76,0,2.464-.656,2.464-2.448v-6.3c0-1.792-.7-2.448-2.464-2.448Z" transform="translate(502.45 526.05)" fill="#fff"/>
    </g>
    <path id="Path_11749" data-name="Path 11749" d="M5266.855,4726.844v120.607l22,22,47.5,2.187,29.822-2.187,43.328-9.042,44.4-12.957,21.323-2.665,54.231-36.492v-76.356l-25.928-5.094-17.01-16.058-32.616-47.814L5414,4649.99l-9.216,7.726-8.612,18.7-18.554,12.066-8.969-2.064-6.146,5.126-13.543,3.732h-21.069l-37.371,7.97Z" transform="translate(-4811.855 -4495.98)" fill="none"/>
    <path id="Path_9465" data-name="Path 9465" d="M5266.855,4726.844v120.607l22,22,47.5,2.187,29.822-2.187,43.328-9.042,44.4-12.957,21.323-2.665,54.231-36.492v-76.356l-25.928-5.094-17.01-16.058-32.616-47.814L5414,4649.99l-9.216,7.726-8.612,18.7-18.554,12.066-8.969-2.064-6.146,5.126-13.543,3.732h-21.069l-37.371,7.97Z" transform="translate(-4811.855 -4495.98)" fill="#ffb100" opacity="0.4"/>
    <g transform="matrix(1, 0, 0, 1, 100.55, 139.95)" filter="url(#Path_11755)">
      <path id="Path_11755-2" data-name="Path 11755" d="M9.72,0H14.1l2.34-21H13.56L11.85-4.32,10.2-21H7.02L5.43-4.44,3.66-21H.45L2.79,0H7.32l1.2-11.19ZM21.39-18h5.7v-3h-9V0h9V-3h-5.7V-9.15h4.53v-3H21.39Zm7.32,2.04c0,6,6.45,6.81,6.45,11.13,0,1.5-.66,2.04-1.71,2.04s-1.71-.54-1.71-2.04v-1.5H28.62v1.29c0,3.36,1.68,5.28,4.92,5.28s4.92-1.92,4.92-5.28c0-6-6.45-6.81-6.45-11.13,0-1.5.6-2.07,1.65-2.07s1.65.57,1.65,2.07v.87h3.12v-.66c0-3.36-1.65-5.28-4.86-5.28S28.71-19.32,28.71-15.96ZM39.39-18h3.45V0h3.3V-18h3.45v-3H39.39Zm21.15-3H55.68V0h3.3V-7.89h1.56c3.3,0,4.92-1.83,4.92-5.19v-2.73C65.46-19.17,63.84-21,60.54-21Zm0,3c1.05,0,1.62.48,1.62,1.98v3.15c0,1.5-.57,1.98-1.62,1.98H58.98V-18ZM66.99,0h3.3V-21h-3.3Zm4.74-18h3.45V0h3.3V-18h3.45v-3H71.73Z" transform="translate(440.88 147.88)" fill="#fff"/>
    </g>
    <path id="Path_9557" data-name="Path 9557" d="M226.817,838.581l5.456,12.771s11.2.018,17.119-3.923v-5.691h6.268v-4.531l-.871-.831v-4.935l8.8,3.529-3.022,6.769,5.518,1.723-2.5,20.836h4.969l-1.024,6.958h-7.928V877l-13.05-1.766v9.6H235.812v4.73l-3.539,4.375-5.456,2.3v6.393l-12.5,4.021V893.936l3.883-.783.77-5.615h-3l2.234-4.109V871.256h-3.883l-4.8-3.247h-5.373V864.3h-3.165v-2.629l6.333.7,1.414-7.042h7.241V858.5h3.679v-4l4.267-3.889-1.8-3.177,1.8-1.869h2.9l-2.9-5.637Z" fill="#58a55c" opacity="0.6"/>
  </g>
<!-- Recatangle image -->
    <rect x="0" y="0" width="10" height="10" style="fill:rgb(0,0,255);" />
    <rect x="10" y="0" width="10" height="10" style="fill:rgb(0,255,255);" />
    <rect x="10.07125" y="20.2202" width="10" height="10" style="fill:rgb(56,23,25);" />
     <rect x="20" y="0" width="10" height="10" style="fill:rgb(255,255,255);" />
     <rect x="10" y="10" width="10" height="10" style="fill:rgb(255,255,255);" />

      <rect x="18.79" y="20.2" width="10" height="10" style="fill:rgb(30,100,156);" />
 <rect x="20.04675" y="10.2202" width="10" height="10" style="fill:rgb(39,53,85);" />
 
  <rect x="9.97325" y="10.2202" width="10" height="10" style="fill:rgb(2,43,85);" />

<rect x="9.8525" y="30.3606" width="10" height="10" style="fill:rgb(0,143,85);" />
<rect x="1601.332" y="406.645" width="10" height="10" style="fill:rgb(45,160,185);" />
<rect x="365.5" y="1635.19" width="10" height="10" style="fill:rgb(115,16,185);" />



<!-- 
    <rect x="498" y="127" width="5" height="5" style="fill:rgb(0,0,255);stroke-width:3;stroke:rgb(0,0,0)" />
  <rect x="610" y="160" width="5" height="5" style="fill:rgb(0,0,255);stroke-width:3;stroke:rgb(0,0,0)" /> -->

</svg>
